<?xml version="1.0" encoding="UTF-8"?>
<svg width="247px" height="150px" viewBox="0 0 247 150" version="1.1" xmlns="http://www.w3.org/2000/svg" xmlns:xlink="http://www.w3.org/1999/xlink">
    <!-- Generator: Sketch 51.2 (57519) - http://www.bohemiancoding.com/sketch -->
    <title>Artboard 4</title>
    <desc>Created with Sketch.</desc>
    <defs></defs>
    <g id="Artboard-4" stroke="none" stroke-width="1" fill="none" fill-rule="evenodd">
        <path d="M172.630735,64.440837 L162.973494,65.5414172 C160.724861,45.8103803 143.762595,30.7197523 123.47249,30.7197523 C101.505884,30.7197523 83.7197523,48.3132447 83.7197523,69.9892972 C83.7197523,91.6653497 101.505884,109.258842 123.47249,109.258842 C143.28807,109.258842 159.990344,94.8502818 162.809441,75.6941064 L172.425621,77.1092609 C168.904214,101.037731 148.107327,118.978594 123.47249,118.978594 C96.1613639,118.978594 74,97.0572572 74,69.9892972 C74,42.9213372 96.1613639,21 123.47249,21 C148.698198,21 169.821733,39.7927379 172.630735,64.440837 Z" id="Oval" fill="#FFBC00" fill-rule="nonzero"></path>
        <polygon id="Line-3" fill="#FFBC00" fill-rule="nonzero" points="118 25 122.232912 25 122.232912 104.319363 118 104.319363"></polygon>
        <polygon id="Line-3-Copy" fill="#FFBC00" fill-rule="nonzero" points="127 39 131.232912 39 131.232912 114.562368 127 114.562368"></polygon>
        <path d="M127,43.7620263 L127,39 C142.947886,39 155.883615,51.8363355 155.883615,67.6799794 L151.121588,67.6799794 C151.121588,54.4745873 140.326079,43.7620263 127,43.7620263 Z" id="Oval-2-Copy" fill="#FFBC00" fill-rule="nonzero"></path>
        <path d="M127,102.679979 L127,97.9179531 C140.326079,97.9179531 151.121588,87.2053921 151.121588,74 L155.883615,74 C155.883615,89.8436439 142.947886,102.679979 127,102.679979 Z" id="Oval-2-Copy-2" fill="#FFBC00" fill-rule="nonzero"></path>
        <polygon id="Line-4" fill="#FFBC00" fill-rule="nonzero" points="97.8194884 90.5449397 95 86.7073129 108.212697 77 111.032185 80.8376269"></polygon>
        <polygon id="Line-4-Copy" fill="#FFBC00" fill-rule="nonzero" points="122.249378 100.258858 118.14933 102.680944 105 80.4220866 109.100048 78"></polygon>
        <polygon id="Line-5" fill="#FFBC00" fill-rule="nonzero" points="156.700502 74 156.700502 78.7620263 142 78.7620263 142 74"></polygon>
        <path d="M115.900344,39 L116.958988,43.6428622 C116.575596,43.7302812 116.074529,43.8183168 115.323679,43.936216 C114.994826,43.9878527 113.640883,44.1936778 113.322287,44.2433435 C111.669434,44.5010052 110.622355,44.7059235 110.271654,44.8395333 C100.172534,48.7099877 93.5932028,57.996001 93.7653373,68.4816872 C93.8633075,74.4496005 96.0167561,80.1176804 99.7944471,84.6713154 L96.1294351,87.7118057 C91.6689032,82.3350732 89.1199514,75.6259916 89.0039526,68.5598508 C88.7982562,56.0297296 96.6379632,44.9648323 108.571862,40.39121 C109.374515,40.0854044 110.534546,39.8583808 112.588798,39.5381455 C112.920246,39.4864764 114.270692,39.2811828 114.584992,39.2318312 C115.231482,39.1303187 115.65565,39.0557941 115.900344,39 Z" id="Oval-2" fill="#FFBC00" fill-rule="nonzero"></path>
    </g>
</svg>