<?xml version="1.0" encoding="UTF-8"?>
<svg width="68px" height="75px" viewBox="0 0 68 75" version="1.1" xmlns="http://www.w3.org/2000/svg" xmlns:xlink="http://www.w3.org/1999/xlink">
    <!-- Generator: Sketch 51.2 (57519) - http://www.bohemiancoding.com/sketch -->
    <title>icon/assets</title>
    <desc>Created with Sketch.</desc>
    <defs></defs>
    <g id="Page-1" stroke="none" stroke-width="1" fill="none" fill-rule="evenodd">
        <g id="10_首頁new" transform="translate(-608.000000, -3908.000000)">
            <g id="1簡介" transform="translate(264.000000, 3908.000000)">
                <g id="Group-22" transform="translate(279.000000, 0.000000)">
                    <g id="icon/assets" transform="translate(65.000000, 0.000000)">
                        <g id="img交易資產">
                            <g id="Group_15" fill-rule="nonzero">
                                <g id="Group_14" transform="translate(1.478261, 29.702970)" fill="#A0A0A0" opacity="0.2">
                                    <g id="Group_13">
                                        <g id="Group_5" transform="translate(0.429435, 31.225248)">
                                            <g id="Group_4">
                                                <path d="M59.6596522,0 L5.5493913,0 L5.5493913,3.63118812 L0,3.63118812 L0,13.315099 L65.2097826,13.315099 L65.2097826,3.63118812 L59.6596522,3.63118812 L59.6596522,0 Z M61.8866522,6.96980198 L61.8866522,9.94009901 L3.3586087,9.94009901 L3.3586087,6.96980198 L8.90873913,6.96980198 L8.90873913,3.33861386 L56.3372609,3.33861386 L56.3372609,6.93341584 C58.1991304,6.96980198 60.0247826,6.96980198 61.8866522,6.96980198 Z" id="Path_28"></path>
                                            </g>
                                        </g>
                                        <g id="Group_9" transform="translate(8.790478, 0.192327)">
                                            <g id="Group_8">
                                                <path d="M12.1217391,27.0712871 L12.1217391,0 L0,0 L0,27.0712871 L12.1217391,27.0712871 Z M3.3586087,3.33861386 L8.7986087,3.33861386 L8.7986087,23.6970297 L3.3586087,23.6970297 L3.3586087,3.33861386 Z" id="Path_30"></path>
                                            </g>
                                        </g>
                                        <g id="Group_11" transform="translate(45.155696, 0.192327)">
                                            <g id="Group_10">
                                                <path d="M12.0847826,27.0712871 L12.0847826,0 L0,0 L0,27.0712871 L12.0847826,27.0712871 Z M3.3586087,3.33861386 L8.7623913,3.33861386 L8.7623913,23.7334158 L3.3586087,23.7334158 L3.3586087,3.33861386 Z" id="Path_31"></path>
                                            </g>
                                        </g>
                                        <g id="Group_12" transform="translate(28.177130, 0.265842)">
                                            <path d="M6.86430435,26.300495 L6.86430435,22.9990099 C6.93821739,22.9626238 7.01213043,22.9626238 7.08604348,22.9247525 C7.91002588,22.7511853 8.69957523,22.4412718 9.42243478,22.0076733 C10.906501,21.0608046 11.8320766,19.4411752 11.8977726,17.6761744 C11.9634686,15.9111735 11.1608798,14.2266185 9.75134783,13.1710396 C8.76506615,12.5015919 7.71263328,11.9362192 6.61078261,11.4839109 C5.72450788,11.1493886 4.88890695,10.6925278 4.12804348,10.1264851 C3.7193987,9.84563841 3.40196055,9.45028439 3.21521739,8.98960396 C2.91545307,8.27252559 2.94549462,7.45916506 3.29733246,6.76637847 C3.64917029,6.07359188 4.28703823,5.57180464 5.04086957,5.39480198 C6.25755245,5.07626547 7.5409926,5.12795599 8.7283913,5.54331683 C9.31276611,5.74396524 9.88571781,5.97674231 10.4446522,6.24059406 C10.7003913,5.58044554 10.9561304,4.88316832 11.2111304,4.18663366 L11.174913,4.15024752 C11.1342734,4.11100691 11.0827177,4.08510895 11.027087,4.0759901 C9.88635138,3.4748635 8.62669452,3.13647672 7.33956522,3.08539604 C7.157,3.08539604 7.08382609,3.01113861 7.08382609,2.82846535 L7.08382609,0.00668316832 L5.11256522,0.00668316832 L5.11256522,2.94133663 C5.11256522,3.16410891 5.03865217,3.23836634 4.85682609,3.27178218 C4.53611298,3.34023185 4.21930557,3.42599984 3.90778261,3.52871287 C1.9341311,4.08197219 0.508585087,5.80645558 0.329652174,7.85717822 C0.156250975,9.03203052 0.473452342,10.2266748 1.20626087,11.1586634 C1.7462407,11.8746948 2.44667272,12.4527123 3.25069565,12.8457921 C4.19973913,13.3225248 5.18573913,13.7264851 6.13330435,14.1660891 C6.98987679,14.5093863 7.76224616,15.0350584 8.39726087,15.7069307 C9.35959096,16.7939216 9.40572458,18.4183138 8.50665217,19.5586634 C7.77502159,20.3887202 6.72758001,20.8684711 5.62404348,20.8789604 C4.42452595,20.9288345 3.22856366,20.7159941 2.11908696,20.255198 C1.64456522,20.0324257 1.20626087,19.8148515 0.694782609,19.5586634 L0.0376956522,21.4292079 C-0.00320680686,21.5011791 -0.0103608038,21.5876312 0.0181505158,21.6654001 C0.0466618353,21.743169 0.107923788,21.8043045 0.185521739,21.8324257 C1.08616575,22.3636136 2.07628024,22.7240513 3.10656522,22.8957921 C3.65426087,23.0056931 4.23817391,23.0443069 4.85904348,23.1185644 L4.85904348,26.3116337 L6.86430435,26.300495 Z" id="Path_32"></path>
                                        </g>
                                    </g>
                                </g>
                                <path d="M7.01356232,60.1485149 L60.9864377,60.1485149 L60.9864377,63.7670383 L66.5217391,63.7670383 L66.5217391,73.5148515 L1.47826087,73.5148515 L1.47826087,63.7670383 L7.01429957,63.7670383 L7.01356232,60.1485149 Z M57.6356192,63.5121495 L10.3253063,63.5121495 L10.3253063,67.1672992 L4.79590292,67.1672992 L4.79590292,70.1571966 L63.1753442,70.1571966 L63.1753442,67.1672992 L57.6400427,67.1672992 L57.6356192,63.5121495 Z" id="Path_34" fill="#FBC316"></path>
                                <path d="M0,25.2475248 C1.49041714,24.1059101 2.87043301,23.074654 4.2173285,22.0411608 C13.8516793,14.7833449 23.474254,7.51459245 33.0850525,0.234903597 C33.2278066,0.0848019938 33.4246937,0 33.6304348,0 C33.8361758,0 34.033063,0.0848019938 34.1758171,0.234903597 C44.9740426,8.41187723 55.796311,16.5766717 66.6426225,24.7292869 C66.8244165,24.8784201 66.9701462,24.9872873 67.2608696,25.2080045 C44.8288036,25.2475248 22.5049308,25.2475248 0,25.2475248 Z M57.0443361,21.9322936 C57.0443361,21.895756 57.0811365,21.857727 57.0811365,21.7831604 C49.2642359,15.8894161 41.4473354,9.98374121 33.6304348,4.06613564 C25.7772245,9.99641754 17.9600786,15.8901618 10.1436687,21.8204437 C10.1797331,21.8569813 10.1797331,21.8950103 10.2172695,21.9308023 L57.0443361,21.9322936 Z" id="Path_35" fill="#FBC316"></path>
                                <path d="M21.4347826,28.960396 L21.4347826,55.6930693 L9.60869565,55.6930693 L9.60869565,28.960396 L21.4347826,28.960396 Z M18.1573701,32.2931808 L12.850053,32.2931808 L12.850053,52.3969489 L18.1573701,52.3969489 L18.1573701,32.2931808 Z" id="Path_36" fill="#FBC316"></path>
                                <path d="M45.826087,28.960396 L57.6521739,28.960396 L57.6521739,55.6930693 L45.826087,55.6930693 L45.826087,28.960396 Z M49.1133211,32.2601829 L49.1133211,52.399882 L54.401103,52.399882 L54.401103,32.2601829 L49.1133211,32.2601829 Z" id="Path_37" fill="#FBC316"></path>
                                <path d="M39.9679813,33.0932996 C39.7138496,33.7824838 39.4604524,34.4709341 39.2063207,35.1234206 C38.6260778,34.9032339 38.0818246,34.6155233 37.5008472,34.4342363 C36.3209035,34.0237403 35.0455434,33.9726502 33.836503,34.2874452 C33.0874098,34.4623935 32.4535511,34.9583567 32.1039248,35.6431024 C31.7542984,36.3278481 31.7244456,37.1317683 32.0223258,37.8405239 C32.2176895,38.2900105 32.5311293,38.6782944 32.9294144,38.9642098 C33.6901654,39.5163309 34.5194865,39.9673302 35.3965485,40.3058805 C36.501511,40.7308201 37.5495254,41.2909361 38.5166396,41.9734275 C39.916676,43.0171547 40.7137271,44.6819863 40.6484541,46.4262313 C40.5831811,48.1704763 39.6639277,49.771173 38.1897939,50.7074982 C37.4715018,51.1361131 36.6869067,51.4424329 35.8680877,51.6139332 C35.7899983,51.6212828 35.7146267,51.6463885 35.6477423,51.6873288 L35.6477423,54.950495 L33.6521474,54.950495 L33.6521474,51.7944863 C33.0351802,51.7210908 32.4909271,51.6858609 31.9106841,51.5742996 C30.8868622,51.4046008 29.9029623,51.0483433 29.0080006,50.5232753 C28.8265829,50.4146499 28.7876552,50.3419883 28.8611036,50.1247375 C29.1152354,49.5082148 29.2966531,48.8916922 29.5140606,48.2759035 C29.9855997,48.4960902 30.4571389,48.747103 30.9286781,48.9643538 C32.0261137,49.4369347 33.2184963,49.6480017 34.4116046,49.5808764 C35.5137099,49.5959673 36.5646848,49.1171757 37.2760949,48.2759035 C38.1503267,47.1424906 38.1048737,45.550633 37.1673912,44.4688762 C36.5266574,43.8163398 35.7617318,43.2985215 34.9176645,42.9459185 C33.9378619,42.5106829 32.9587938,42.112145 32.0531742,41.6409456 C31.2542949,41.2522878 30.5582955,40.681004 30.0215895,39.9733987 C29.2933869,39.0522273 28.9781793,37.8714487 29.1504906,36.7102324 C29.341851,34.6889095 30.7528798,32.9911278 32.7061311,32.4320057 C33.014567,32.3259315 33.3299086,32.2410836 33.6499439,32.1780571 C33.8313616,32.1420932 33.9033411,32.0694316 33.9033411,31.8514468 L33.9033411,28.960396 L35.8622118,28.960396 L35.8622118,31.749427 C35.8622118,31.930714 35.8989361,32.0033756 36.1163436,32.0033756 C37.396091,32.0491634 38.6488559,32.3838966 39.7806877,32.9824723 C39.8210175,33.0213345 39.8722746,33.0469446 39.9275847,33.0558679 C39.9279847,33.0758483 39.9443101,33.0918357 39.9643089,33.0918317 L39.9679813,33.0932996 Z" id="Path_39" fill="#FBC316"></path>
                            </g>
                        </g>
                    </g>
                </g>
            </g>
        </g>
    </g>
</svg>