<?xml version="1.0" encoding="UTF-8"?>
<svg width="80px" height="80px" viewBox="0 0 80 80" version="1.1" xmlns="http://www.w3.org/2000/svg" xmlns:xlink="http://www.w3.org/1999/xlink">
    <!-- Generator: Sketch 51.2 (57519) - http://www.bohemiancoding.com/sketch -->
    <title>icon/consumption</title>
    <desc>Created with Sketch.</desc>
    <defs></defs>
    <g id="Page-1" stroke="none" stroke-width="1" fill="none" fill-rule="evenodd">
        <g id="10_首頁new" transform="translate(-899.000000, -3909.000000)">
            <g id="1簡介" transform="translate(264.000000, 3908.000000)">
                <g id="Group-23" transform="translate(576.000000, 0.000000)">
                    <g id="icon/consumption" transform="translate(58.000000, 0.000000)">
                        <g id="img消費媒介">
                            <circle id="Oval-3" stroke="#FBC316" stroke-width="4" cx="42" cy="42" r="8"></circle>
                            <text id="＄" font-family="PingFangTC-Regular, PingFang TC" font-size="14" font-weight="normal" letter-spacing="1.5" fill="#FFC100">
                                <tspan x="36" y="47">＄</tspan>
                            </text>
                            <g id="Group_54" fill="#FBC316" fill-rule="nonzero">
                                <g id="Group_151" transform="translate(0.248202, 0.320827)">
                                    <g id="Group_150" transform="translate(0.549875, 0.477250)">
                                        <g id="Group_149">
                                            <path d="M52.3187308,29.8001923 C52.9979952,30.0606937 53.7677475,29.8552976 54.2269327,29.2910192 L55.9228462,27.5951058 C56.9826923,26.5775577 58.0425385,25.4754135 59.0608846,24.4147692 C59.5096377,23.8545473 60.2941632,23.6941524 60.9267885,24.0332885 C62.1121566,24.555127 63.4285037,24.7029655 64.7000962,24.4570673 C68.1606256,23.8950835 70.6866726,20.8820305 70.6361923,17.3765288 C70.639572,14.338635 68.7172917,11.6323846 65.8477308,10.6351731 C65.0435813,10.3539268 64.1976724,10.2106484 63.3457596,10.2113942 C61.4538643,10.2482749 59.6602166,11.0608411 58.3849135,12.4587788 C56.3099135,14.5784712 55.7983462,17.1227404 56.9004904,20.0907885 C57.1685056,20.7046688 57.0150054,21.42111 56.5190096,21.8712981 C55.3737692,22.9734423 54.2293269,24.1186827 53.1271827,25.2232212 L51.7281538,26.62225 C51.1343846,27.2160192 50.9228942,27.6820962 51.0098846,28.1912692 C51.0528976,28.953966 51.580754,29.6028431 52.3187308,29.8001923 Z M61.0975769,14.9176538 C61.7271095,14.2886979 62.5819831,13.9375531 63.4718558,13.9424038 L63.5141538,13.9424038 C65.4109891,13.9424038 66.9486779,15.4800926 66.9486779,17.3769279 C66.9486779,19.2737631 65.4109891,20.8114519 63.5141538,20.8114519 C62.6092229,20.8063872 61.7433932,20.4419303 61.1072533,19.7983064 C60.4711133,19.1546825 60.1168077,18.2846495 60.1223269,17.3797212 C60.0766544,16.4577298 60.4316304,15.5609791 61.0959808,14.9200481 L61.0975769,14.9176538 Z" id="Path_619"></path>
                                            <path d="M13.5649135,23.3557212 C15.5187525,24.6765915 18.0089677,24.9169597 20.179375,23.9941827 C20.3954259,23.9031617 20.6242503,23.8460902 20.8577404,23.8249904 C21.2539231,23.842192 21.6240099,24.0273806 21.8752885,24.3341635 C23.4866058,25.9877788 25.055625,27.5567981 26.5839423,29.0827212 C26.8523301,29.3519314 27.1687708,29.5684862 27.5168942,29.7211827 C28.3249701,29.9872767 29.2090146,29.651433 29.6365865,28.9159231 C30.0763026,28.1753112 29.95376,27.2302179 29.3397019,26.6262404 C27.6014904,24.8457308 26.0324712,23.2743173 24.4634519,21.7499904 C24.014801,21.325954 23.8644217,20.6741005 24.0819712,20.096375 L24.1665673,19.7571923 C24.4196575,18.9736269 24.5761735,18.1621022 24.6326442,17.3406154 C24.6186331,15.4262667 23.8403108,13.5968701 22.4707581,12.2592407 C21.1012054,10.9216112 19.2539641,10.1866441 17.3398173,10.2177788 L17.0006346,10.2177788 C16.7604169,10.2094906 16.51995,10.2236515 16.2823654,10.2600769 C12.7948476,10.8471549 10.2564777,13.8897425 10.3039712,17.4260096 C10.3633875,19.8148863 11.5793914,22.026073 13.5649135,23.3557212 Z M15.1339327,14.9184519 C15.7690227,14.2718092 16.6444875,13.9185007 17.5505096,13.9432019 C19.4374964,13.9895568 20.9429058,15.5328671 20.9423365,17.4204231 C20.9478558,18.3253514 20.5935501,19.1953844 19.9574102,19.8390083 C19.3212703,20.4826322 18.4554406,20.8470891 17.5505096,20.8521538 C16.628029,20.8671499 15.7395491,20.5042122 15.0914047,19.8476269 C14.4432604,19.1910416 14.0918485,18.2979401 14.1187788,17.3757308 C14.1369141,16.457122 14.5001856,15.579002 15.1363269,14.9160577 L15.1339327,14.9184519 Z" id="Path_620"></path>
                                            <path d="M15.9391923,42.2661538 L18.73725,42.2661538 L18.73725,42.2238558 L20.4754615,42.2238558 C21.3237247,42.2523453 22.1728834,42.2382282 23.0197308,42.1815577 C23.695882,42.1751427 24.3145145,41.7998669 24.6325853,41.2031654 C24.950656,40.606464 24.9173469,39.8836718 24.5457441,39.3187532 C24.1741413,38.7538346 23.5236158,38.4370466 22.8497404,38.4928462 L21.3661154,38.4928462 C19.6702019,38.4928462 17.9343846,38.4928462 16.2360769,38.5351442 C15.4260813,38.6112586 14.6704453,38.1191857 14.4124712,37.3476058 C13.5635038,35.4889645 11.9579078,34.0838864 10.0030962,33.4889038 C9.3438524,33.2866846 8.65753983,33.1865637 7.968,33.1920192 C6.61915871,33.202766 5.29921742,33.5840333 4.15239423,34.2941635 C1.71515052,35.7231754 0.402588174,38.4997009 0.845163462,41.2901058 C1.23768906,44.5069255 3.75419636,47.0521903 6.96634847,47.4812408 C10.1785006,47.9102913 13.2748156,46.1147372 14.4978654,43.1137115 C14.7555691,42.5591897 15.3293249,42.2217984 15.9391923,42.2661538 Z M10.3845769,42.8599231 C9.74290295,43.496642 8.87187378,43.8481604 7.968,43.8351731 L7.88340385,43.8351731 C5.99465068,43.7325639 4.51932525,42.164855 4.53148077,40.2733558 C4.56414203,39.3658024 4.96150356,38.5097918 5.633625,37.8990769 C6.30182489,37.2447912 7.20040844,36.8793386 8.13559615,36.8815288 C9.96490865,37.0102653 11.3871315,38.5249622 11.4005288,40.35875 C11.4463456,41.3016608 11.0740429,42.2167955 10.3829808,42.8599231 L10.3845769,42.8599231 Z" id="Path_621"></path>
                                            <path d="M67.6681442,57.5724712 C65.6931184,56.1263055 63.1103095,55.8053415 60.8413942,56.7241154 C60.2325001,57.0351047 59.4889178,56.8757895 59.0608846,56.3426346 C57.4918654,54.7315833 55.9223141,53.1620321 54.3522308,51.6339808 C54.0333468,51.3016107 53.6178145,51.0782062 53.1646923,50.9955192 C53.0800962,50.9955192 52.9524038,50.9532212 52.8678077,50.9532212 C52.1218362,50.9731471 51.4626128,51.4438392 51.2015721,52.1429302 C50.9405313,52.8420212 51.1299213,53.6295858 51.6802692,54.1335577 L51.9348558,54.4304423 C53.4192788,55.9140673 54.9452019,57.4830865 56.4719231,58.9675096 C56.9909188,59.4041647 57.1479445,60.1370609 56.8534038,60.7480192 C55.5560967,63.9930392 56.8156132,67.6994521 59.8214519,69.4821731 C62.0303647,70.7993363 64.7751631,70.8340614 67.0166911,69.5732019 C69.2582191,68.3123424 70.6538834,65.948607 70.6752981,63.3768846 C70.711476,61.057725 69.580591,58.8754048 67.6649519,57.5676827 L67.6681442,57.5724712 Z M65.8876346,65.8405481 C65.274496,66.4680826 64.4329912,66.8200056 63.5556538,66.8157981 L63.5133558,66.8157981 C62.5356663,66.8228391 61.5989282,66.4236922 60.9267885,65.7136538 C60.2914944,65.074073 59.9531339,64.1976354 59.9938365,63.2970769 C60.0835787,61.477503 61.5273752,60.0165186 63.3457596,59.90525 L63.3880577,59.90525 C64.3199295,59.8975032 65.2152661,60.2672352 65.8701501,60.9302375 C66.525034,61.5932399 66.8837075,62.4930636 66.8644808,63.4247692 C66.928463,64.3376871 66.5677269,65.2290735 65.8868365,65.8405481 L65.8876346,65.8405481 Z" id="Path_622"></path>
                                            <path d="M43.3730865,66.3920192 C42.693407,66.1411118 42.2731924,65.4582218 42.3555385,64.7384038 C42.3978365,63.9323462 42.3555385,63.1270865 42.3555385,62.3218269 L42.3555385,57.95475 C42.3759041,57.4461335 42.1886575,56.9510856 41.836788,56.5832631 C41.4849185,56.2154406 40.998654,56.0064417 40.4896346,56.00425 C39.9802214,56.0184186 39.4983986,56.2388407 39.1545879,56.6150013 C38.8107771,56.9911618 38.6344546,57.4908112 38.6660288,57.9994423 L38.6660288,59.4407692 C38.6660288,61.1366827 38.6660288,62.8725 38.7083269,64.6131058 C38.7858905,65.4334909 38.2968421,66.2019018 37.5207885,66.4790096 C35.3536291,67.4094496 33.8274328,69.4013369 33.4928942,71.7359423 C33.1522854,73.6491511 33.6290412,75.6175418 34.8073269,77.1628654 C36.3189901,79.154788 38.7553569,80.2204877 41.2441904,79.9784365 C43.733024,79.7363852 45.918387,78.2211996 47.0179038,75.9753269 C47.860907,74.2370462 47.9529508,72.2288177 47.2724904,70.4207115 C46.5378636,68.6271578 45.1417329,67.1847371 43.3730865,66.3920192 Z M42.9070096,75.3384615 C42.2652272,75.9801402 41.397914,76.3453398 40.4904327,76.3560096 L40.4058365,76.3560096 C39.1787993,76.3484538 38.0490011,75.6868553 37.442026,74.620432 C36.8350509,73.5540086 36.8431129,72.2447755 37.463175,71.185908 C38.0832372,70.1270404 39.2210974,69.4794057 40.4481346,69.4869615 L40.4904327,69.4869615 C42.3696971,69.5251094 43.8840156,71.0394279 43.9221635,72.9186923 C43.9521708,73.8347659 43.5811826,74.7183766 42.9062115,75.3384615 L42.9070096,75.3384615 Z" id="Path_623"></path>
                                            <path d="M37.7330769,14.452375 C38.3301124,14.6717238 38.7103749,15.2591952 38.6660288,15.8937019 C38.6237308,18.0987885 38.6660288,20.3884712 38.6660288,22.5504615 L38.6660288,22.7204519 C38.6497968,22.9777532 38.6784218,23.2359177 38.750625,23.4834135 C39.0358362,24.3222765 39.8649416,24.8509142 40.7458173,24.7555481 C41.6611094,24.6651766 42.358299,23.8947804 42.3571346,22.9750385 L42.3571346,22.8904423 C42.3571346,20.7284519 42.3994327,18.5233654 42.3571346,16.3182788 C42.2314756,15.4305761 42.771435,14.583714 43.6292692,14.3230865 C46.2581346,13.1786442 47.8694519,10.1675 47.6994615,8.21779808 C47.4871731,5.20745192 46.4273269,3.25695192 44.3076346,1.85792308 C43.2106991,1.14594216 41.9264927,0.776962039 40.6189231,0.798076923 C39.9607223,0.801838971 39.3055383,0.887356034 38.6684231,1.05266346 C36.7682912,1.52032587 35.1525916,2.76584547 34.21675,4.48439423 C33.2479931,6.26808728 33.0786918,8.37826536 33.7506731,10.2935962 C34.4602452,12.1620597 35.8989025,13.6617893 37.7362692,14.4483846 L37.7330769,14.452375 Z M38.0722596,5.42133654 C38.7351603,4.78512849 39.6133076,4.42184561 40.5319327,4.40378846 C42.4115115,4.44418616 43.9141312,5.9794486 43.9141312,7.85946154 C43.9141312,9.73947448 42.4115115,11.2747369 40.5319327,11.3151346 L40.4896346,11.3151346 C38.5813594,11.2793222 37.0631061,9.70391108 37.0978077,7.79561538 C37.0729709,6.90189593 37.4268859,6.03928241 38.0722596,5.42053846 L38.0722596,5.42133654 Z" id="Path_624"></path>
                                            <path d="M28.956625,51.0857019 C28.1654932,50.7249741 27.23108,50.9324405 26.6669423,51.5940769 C25.055625,53.2053942 23.4866058,54.7744135 21.9183846,56.3825385 C21.4969871,56.8964801 20.7780626,57.0542606 20.1801731,56.7640192 C19.3369826,56.3990944 18.42778,56.2113863 17.5090096,56.2125481 C16.3855396,56.2176281 15.2799404,56.4941648 14.286375,57.0186058 C11.2270312,58.5480219 9.69391189,62.0420843 10.6399615,65.3289808 C11.5162171,68.4187726 14.3396706,70.5494041 17.5513077,70.5444135 L17.5936058,70.5444135 C19.8385338,70.5427478 21.9484402,69.4719385 23.2751154,67.6609615 C24.5830435,65.9624099 25.0079644,63.744234 24.4203558,61.6825673 C23.8862163,60.3903841 24.3068537,58.900503 25.4379038,58.0784519 C26.5400481,57.1032019 27.6006923,56.0034519 28.6182404,54.9404135 C28.8728269,54.6858269 29.0843173,54.4320385 29.3365096,54.2221442 C29.8148855,53.7603827 30.0509116,53.1021649 29.9749712,52.4416346 C29.8600311,51.8580245 29.4850678,51.358759 28.956625,51.0857019 Z M19.8401923,65.9259423 C19.2505807,66.5369791 18.441826,66.8879373 17.5928077,66.9011923 C16.1797818,66.9639513 14.8715232,66.1580937 14.291886,64.8678993 C13.7122487,63.5777049 13.9786057,62.06443 14.9639423,61.0496923 C15.5786367,60.3886902 16.4357198,60.0060999 17.3382212,59.9898462 C19.2404743,59.9704343 20.8068719,61.4800011 20.8577404,63.3816731 C20.8878917,64.3342639 20.5190576,65.2562045 19.8401923,65.9251442 L19.8401923,65.9259423 Z" id="Path_625"></path>
                                            <path d="M77.5475385,34.8464327 C76.1150787,33.6262854 74.246371,33.0442242 72.3744038,33.2351154 C69.7054701,33.4490414 67.3886655,35.1578047 66.3960096,37.6444904 C66.2173375,38.2053043 65.6661456,38.5607177 65.0815769,38.4920481 C64.3186154,38.44975 63.5125577,38.4920481 62.7495962,38.4920481 L61.0113846,38.4920481 C59.9515385,38.4920481 58.8916923,38.4920481 57.8318462,38.5343462 C57.3582996,38.5649295 56.9167659,38.78403 56.6059968,39.1426443 C56.2952277,39.5012587 56.1411524,39.9694658 56.1782308,40.4425481 C56.2280739,41.4310768 57.054557,42.2009999 58.0441346,42.1807596 L65.0400769,42.1807596 C65.6842493,42.1480315 66.2722171,42.5458703 66.4814038,43.1560096 C67.4303964,45.4872281 69.5772482,47.1136681 72.0783173,47.3961923 C74.1709063,47.7045797 76.2907154,47.0500967 77.8452212,45.6156827 C79.3746624,44.2220483 80.2213006,42.2314044 80.1642801,40.1630341 C80.1072597,38.0946637 79.1522354,36.1536877 77.5483365,34.8464327 L77.5475385,34.8464327 Z M75.4278462,42.8599231 C74.821877,43.4724478 73.9996902,43.8226438 73.1381635,43.8351731 L73.0958654,43.8351731 C71.1897326,43.7852561 69.6497426,42.2641232 69.5763462,40.35875 C69.5908057,39.4310389 69.9718344,38.5467539 70.6361923,37.8990769 C71.2780712,37.2575418 72.1453232,36.892368 73.0527692,36.8815288 L73.0950673,36.8815288 C74.9765359,36.9545325 76.4781439,38.4756963 76.5267981,40.3579519 C76.4864266,41.3002255 76.0939798,42.1930562 75.4270481,42.8599231 L75.4278462,42.8599231 Z" id="Path_626"></path>
                                        </g>
                                    </g>
                                </g>
                            </g>
                        </g>
                    </g>
                </g>
            </g>
        </g>
    </g>
</svg>