<?xml version="1.0" encoding="UTF-8"?>
<svg width="47px" height="47px" viewBox="0 0 47 47" version="1.1" xmlns="http://www.w3.org/2000/svg" xmlns:xlink="http://www.w3.org/1999/xlink">
    <!-- Generator: Sketch 51.2 (57519) - http://www.bohemiancoding.com/sketch -->
    <title>logo</title>
    <desc>Created with Sketch.</desc>
    <defs>
        <linearGradient x1="50%" y1="100%" x2="50%" y2="3.061617e-15%" id="linearGradient-1">
            <stop stop-color="#081F52" offset="0%"></stop>
            <stop stop-color="#07163E" offset="42.6707009%"></stop>
            <stop stop-color="#082965" offset="100%"></stop>
        </linearGradient>
    </defs>
    <g id="Page-1" stroke="none" stroke-width="1" fill="none" fill-rule="evenodd">
        <g id="10_首頁" transform="translate(-124.000000, -27.000000)">
            <rect fill="#FFFFFF" x="0" y="0" width="1024" height="4899"></rect>
            <polygon id="BG" fill="url(#linearGradient-1)" points="0 0 205.132341 0 1024 0 1024 1283 0 1283"></polygon>
            <g id="logo" transform="translate(127.000000, 30.000000)" stroke="#FFBC00">
                <g id="Group-Copy-2">
                    <g id="Group-Copy-3">
                        <path d="M41.1780112,18.2551653 C40.0162452,8.06103701 31.2707277,0.138383838 20.6545142,0.138383838 C9.24734101,0.138383838 0,9.28556819 0,20.5691919 C0,31.8528156 9.24734101,41 20.6545142,41 C31.0423279,41 39.6390729,33.4145795 41.0925539,23.537965" id="Oval" stroke-width="4.5"></path>
                        <path d="M18.9668377,0.583333333 L18.9668377,35.3464646" id="Line-3" stroke-width="1.95973154" stroke-linecap="square"></path>
                        <path d="M23.0568496,7.22626263 L23.0568496,40.25" id="Line-3-Copy" stroke-width="1.95973154" stroke-linecap="square"></path>
                        <path d="M22.3264903,7.22626263 C29.1030438,7.22626263 34.5965259,12.677535 34.5965259,19.4020202" id="Oval-2-Copy" stroke-width="2.20469799"></path>
                        <path d="M22.3264903,34.7666667 C29.1030438,34.7666667 34.5965259,29.3153943 34.5965259,22.5909091" id="Oval-2-Copy-2" stroke-width="2.20469799"></path>
                        <path d="M8.6374711,28.6787879 L12.9778918,25.489899" id="Line-4" stroke-width="2.20469799" stroke-linecap="square"></path>
                        <path d="M18.2364785,34.1868687 L13.2700355,25.779798" id="Line-4-Copy" stroke-width="2.20469799" stroke-linecap="square"></path>
                        <path d="M34.5600079,23.4606061 L29.9587446,23.4606061" id="Line-5" stroke-width="2.20469799" stroke-linecap="square"></path>
                        <path d="M17.4191136,7.22626263 C16.7678174,7.37476806 14.783978,7.59316762 14.173617,7.82571123 C9.17562962,9.74117333 5.73476577,14.3891413 5.823901,19.8188696 C5.87485689,22.9228797 7.02018373,25.7714059 8.86902311,28" id="Oval-2" stroke-width="2.20469799"></path>
                    </g>
                </g>
            </g>
        </g>
    </g>
</svg>