<?xml version="1.0" encoding="UTF-8"?>
<svg width="78px" height="77px" viewBox="0 0 78 77" version="1.1" xmlns="http://www.w3.org/2000/svg" xmlns:xlink="http://www.w3.org/1999/xlink">
    <!-- Generator: Sketch 51.2 (57519) - http://www.bohemiancoding.com/sketch -->
    <title>icon/transnational</title>
    <desc>Created with Sketch.</desc>
    <defs></defs>
    <g id="Page-1" stroke="none" stroke-width="1" fill="none" fill-rule="evenodd">
        <g id="10_首頁new" transform="translate(-325.000000, -3908.000000)">
            <g id="1簡介" transform="translate(264.000000, 3908.000000)">
                <g id="Group-21">
                    <g id="icon/transnational" transform="translate(61.000000, 0.000000)">
                        <g id="跨國交易img">
                            <g id="Group_127" transform="translate(1.348787, 0.339529)" fill="#F4F4F4" fill-rule="nonzero">
                                <path d="M39.2278674,11.0484706 C27.9971599,10.5068114 17.5574083,16.8288582 12.8217144,27.0393621 C8.08602052,37.2498659 9.99773043,49.3149034 17.6571651,57.5564891 C25.3165998,65.7980748 37.1980066,68.574492 47.7098193,64.5791177 C58.2216321,60.5837433 65.2699069,50.6124525 65.5376212,39.3578824 C65.8949524,24.3358639 54.2180353,11.7714493 39.2278674,11.0484706 Z M29.5595217,15.9081765 C29.4430453,16.035295 29.3152228,16.1515026 29.1776453,16.2553529 C25.8978994,19.0140261 23.3450086,22.536969 21.7432763,26.5146471 C21.6216173,26.993682 21.1506484,27.296921 20.6648574,27.209 C19.5092996,27.1707647 18.3537417,27.209 17.1981838,27.209 L16.5818354,27.209 C18.658479,22.7347059 24.0123856,17.7205294 29.5595217,15.9081765 Z M15.0375274,46.9942353 C13.1722376,41.8753173 13.0914846,36.2751129 14.8084016,31.1044118 C14.8847768,30.9117059 15.0780063,30.6417647 15.2322843,30.6417647 C16.888864,30.6035294 18.5836313,30.6035294 20.3165862,30.6035294 C18.8775806,36.1251861 18.9440449,41.9322232 20.5090519,47.4194118 L15.6974097,47.4194118 C15.5537515,47.4596591 15.3997488,47.4362082 15.2745364,47.3550185 C15.149324,47.2738287 15.0649567,47.1427166 15.0428736,46.995 L15.0375274,46.9942353 Z M16.8865727,50.8124118 L19.5062446,50.8124118 C20.199732,50.8124118 21.0085462,50.583 21.5477556,50.8888824 C22.0487774,51.1947647 22.2412431,52.0068824 22.5497992,52.6247647 C24.1884235,55.8676483 26.4534037,58.7527667 29.2135417,61.113 C29.3288683,61.1894706 29.4060074,61.3057059 29.5190428,61.3829412 C24.1852847,59.4781968 19.7057071,55.7298003 16.8865727,50.8124118 Z M36.1468889,61.4961176 C31.4061746,59.3519803 27.5921829,55.5744773 25.3993606,50.8514118 L36.1468889,50.8514118 L36.1468889,61.4961176 Z M36.1468889,47.4186471 C35.9544232,47.4186471 35.7650125,47.4576471 35.5687281,47.4576471 L24.551595,47.4576471 C24.1697187,47.4576471 23.9352466,47.3811765 23.8199199,46.956 C22.2679134,41.7936724 22.2149339,36.2957614 23.6671694,31.1044118 C23.6763905,30.9637224 23.7443177,30.8334131 23.8543192,30.7453894 C23.9643207,30.6573657 24.1062404,30.6197545 24.2453302,30.6417647 L35.8398603,30.6417647 C35.9430348,30.6400321 36.0459219,30.6531665 36.1453614,30.6807647 C36.1468889,36.2363529 36.1468889,41.8255882 36.1468889,47.4186471 Z M36.1850765,27.209 L25.1297559,27.209 C27.2715864,22.1806737 31.2137938,18.135898 36.1820215,15.8691765 L36.1850765,27.209 Z M39.6135625,15.8699412 C44.5645108,18.1491523 48.4915755,22.1909676 50.6306955,27.209 L39.6135625,27.209 L39.6135625,15.8699412 Z M39.6135625,30.6417647 L51.9405315,30.6417647 C52.1696573,31.6832941 52.4797409,32.7630588 52.6722066,33.8435882 C53.4087025,38.2190085 53.1319886,42.7053264 51.8633924,46.9567647 C51.7870172,47.2267059 51.6709267,47.4194118 51.324183,47.4194118 L39.8480346,47.4194118 C39.7729199,47.3998464 39.6962611,47.3867982 39.6189088,47.3804118 L39.6135625,30.6417647 Z M39.6135625,61.4968824 L39.6135625,50.8521765 L50.3221394,50.8521765 C48.0991392,55.540425 44.3119161,59.3050593 39.6135625,61.4968824 Z M46.2009297,61.4204118 C46.8172782,60.8415294 47.3946752,60.3406471 47.9728361,59.7617647 C50.3632304,57.4751291 52.2751347,54.7349697 53.5971111,51.701 C53.7573664,51.0486415 54.4041112,50.6399102 55.0612251,50.7757059 C56.293922,50.8521765 57.5266189,50.8147059 58.7975034,50.8147059 C57.2554867,54.6305882 50.1296737,60.6472941 46.200166,61.4188824 L46.2009297,61.4204118 Z M60.8772021,30.9514706 C62.1227936,34.4469718 62.480273,38.1978317 61.9174333,41.8661176 C61.6478286,43.602 61.1086191,45.2598824 60.6847364,46.9567647 C60.600318,47.17408 60.4117445,47.3338192 60.1837146,47.3811765 C58.6424616,47.4194118 57.1019724,47.4194118 55.524823,47.3811765 C55.4484477,47.3811765 55.3720724,47.3421765 55.2552183,47.3421765 C56.8016232,41.8785664 56.8680514,36.1013374 55.447684,30.6035294 L60.5709372,30.6035294 C60.6473125,30.6035294 60.8405419,30.7962353 60.8764383,30.9507059 L60.8772021,30.9514706 Z M56.2946857,27.2487647 C54.8305718,27.4414706 54.137848,26.9788235 53.5214996,25.5518824 C51.9818513,21.9467172 49.5888669,18.7709864 46.549201,16.2989412 C46.4728257,16.2224706 46.3567353,16.146 46.2795963,16.0695294 C46.2414086,16.0305294 46.2414086,15.9930588 46.203221,15.8768235 C51.8005119,17.9415925 56.447244,21.9898388 59.2633926,27.2548824 C58.275435,27.1969074 57.2849345,27.1969074 56.296977,27.2548824 L56.2946857,27.2487647 Z" id="Path_519"></path>
                                <path d="M8.21874306,56.2892353 C5.69679316,52.0626488 4.11984234,47.3389369 3.59651157,42.4434706 C3.1956822,38.6276617 3.41674112,34.7719939 4.25104766,31.0271765 C5.43595201,25.666162 7.90861039,20.675301 11.4547633,16.4870588 C22.7007076,3.04811586 42.2333056,0.209024999 56.8316039,9.89147059 C57.5250914,10.3541176 58.1796275,10.8557647 58.8349273,11.3184118 C58.7959759,11.3566471 58.7959759,11.4338824 58.758552,11.4713529 L55.1765517,11.4713529 C54.7342358,11.4614303 54.3070957,11.6329918 53.9942526,11.9462253 C53.6814095,12.2594589 53.5100618,12.6871321 53.5199721,13.13 C53.503514,13.574679 53.6727812,14.0061289 53.9871129,14.3207077 C54.3014445,14.6352866 54.7324346,14.8045661 55.1765517,14.7878824 L63.8436176,14.7878824 C64.291454,14.8177631 64.730375,14.6526323 65.0477454,14.3348658 C65.3651159,14.0170993 65.5300408,13.5776305 65.5001973,13.1292353 L65.5001973,4.45288235 C65.5013729,4.00594772 65.3219424,3.57754086 65.0027288,3.26513062 C64.6835153,2.95272038 64.2516649,2.78287446 63.80543,2.79423529 C62.8861194,2.81901323 62.1526431,3.5703341 62.1488504,4.49111765 C62.1106627,5.99529412 62.1488504,7.49947059 62.1488504,9.00288235 C62.1518258,9.20928728 62.1388029,9.41561227 62.109899,9.62 C61.8807731,9.42729412 61.7280226,9.31411765 61.5706895,9.19558824 C51.5166487,1.32752941 40.2688623,-1.02470588 27.9808448,2.09911765 C20.0237111,4.11581486 12.9875695,8.78079086 8.02704112,15.3285294 C3.3240585,21.3138857 0.555815272,28.5928608 0.0916503268,36.1942941 C-0.339370077,42.3073092 0.759495324,48.4314174 3.28871923,54.0119412 C3.98244568,55.5043415 4.75387734,56.9592813 5.59983497,58.3707647 C5.78512172,58.7679429 6.13119276,59.0668348 6.55077107,59.1920617 C6.97034938,59.3172886 7.42338463,59.2568971 7.79562405,59.0261176 C8.60209784,58.5774989 8.89468047,57.5605565 8.45016013,56.7511176 C8.38900942,56.5896339 8.31146395,56.4348619 8.21874306,56.2892353 Z" id="Path_520"></path>
                                <path d="M72.5099198,23.5827647 C71.8164323,22.0395882 71.0076182,20.5744118 70.1988041,19.071 C69.9721919,18.6259678 69.551645,18.3118661 69.0610192,18.2212013 C68.5703934,18.1305366 68.065569,18.2736352 67.6952226,18.6083529 C66.9635475,19.1872353 66.9245961,20.0742941 67.5424721,21.1540588 C71.7762787,28.2010871 73.3224577,36.5432199 71.8958626,44.642 C68.876031,62.4379337 52.627525,74.8670029 34.6850662,73.1058824 C28.4863653,72.530421 22.5608454,70.277161 17.5434001,66.5875294 C17.1966563,66.3581176 16.888864,66.0476471 16.4267936,65.6622353 L20.3563013,65.6622353 C20.8303172,65.7152963 21.3037712,65.5578956 21.6519486,65.2314948 C22.0001259,64.9050941 22.1881145,64.4424219 22.1663953,63.9653529 C22.1662837,63.4981675 21.9702048,63.0525079 21.6259932,62.7370958 C21.2817817,62.4216837 20.8210879,62.2655215 20.3563013,62.3067059 L11.9939728,62.3067059 C11.4849553,62.2513803 10.9791174,62.4357185 10.6247038,62.805697 C10.2702902,63.1756755 10.1074398,63.6893925 10.1838788,64.1962941 C10.1838788,65.8159412 10.1838788,67.4363529 10.2228302,69.0139412 C10.2228302,70.2091765 10.2228302,71.4051765 10.2610178,72.6394118 C10.254079,73.0292568 10.3468911,73.4143947 10.5306225,73.7581765 C10.8933027,74.4139828 11.6593163,74.7333159 12.3796679,74.529 C13.1419497,74.3472608 13.6726289,73.6553998 13.6513162,72.8711176 L13.6513162,67.7414706 C13.9209209,67.9341765 14.0751989,68.0473529 14.229477,68.1658824 C23.4357523,75.4550588 33.7975855,78.078 45.3142128,75.8412353 C53.3690594,74.3471831 60.6846344,70.1751865 66.0768306,64.0005294 C72.0473645,57.4406772 75.4768152,48.9584753 75.7451763,40.0874118 C75.9139909,34.4127683 74.808392,28.7725604 72.5099198,23.5827647 Z" id="Path_521"></path>
                            </g>
                            <g id="Group_131" transform="translate(0.122200, 0.487118)" fill="#FBC316" fill-rule="nonzero">
                                <g id="Group_130">
                                    <path d="M66.1875748,38.3997059 C65.6483653,54.0968235 52.9746526,66.053 37.3360519,65.3976471 C22.1533351,64.7308956 10.3544047,51.9196869 10.9187547,36.7139025 C11.4831047,21.508118 24.1991369,9.60903411 39.3894035,10.0723659 C54.57967,10.5356978 66.5487127,23.1877231 66.1875748,38.3997059 Z M36.8350301,29.7585294 C36.7197034,29.7585294 36.6059043,29.7195294 36.529529,29.7195294 L24.9349989,29.7195294 C24.5531225,29.7195294 24.4767473,29.8724706 24.3576019,30.1821765 C22.9240155,35.3759836 22.9769441,40.8686198 24.5103524,46.0337647 C24.6256791,46.4581765 24.8570961,46.5354118 25.2420275,46.5354118 L36.2591605,46.5354118 C36.4516262,46.5354118 36.6059043,46.4964118 36.8373214,46.4964118 C36.8350301,40.9071765 36.8350301,35.3531176 36.8350301,29.7608235 L36.8350301,29.7585294 Z M40.2635161,46.4589412 C40.3364818,46.4872203 40.4144601,46.5002329 40.4926419,46.4971765 L51.9718453,46.4971765 C52.3185891,46.4971765 52.3957281,46.3442353 52.5110547,46.0345294 C53.816436,41.7897208 54.093685,37.2947257 53.3198689,32.9213529 C53.1274032,31.8415882 52.8577985,30.7618235 52.5881938,29.7202941 L40.2619886,29.7202941 C40.2627523,35.3141176 40.2627523,40.8658824 40.2627523,46.4604706 L40.2635161,46.4589412 Z M21.0031999,29.7202941 C19.2694812,29.7202941 17.5747139,29.7202941 15.918898,29.7592941 C15.7661475,29.7592941 15.5721543,30.0292353 15.4950153,30.2181176 C13.7780411,35.3890709 13.8587939,40.989535 15.7241411,46.1087059 C15.7789,46.4164109 16.0707574,46.622705 16.3786772,46.5713529 C17.5724227,46.5331176 18.7287443,46.5713529 19.9224898,46.5713529 L21.1941381,46.5713529 C19.6303356,41.072505 19.5641472,35.2549125 21.0024361,29.7218235 L21.0031999,29.7202941 Z M55.9066993,46.4589412 C55.9934325,46.4883266 56.0848107,46.501545 56.1763041,46.4979412 L60.8351957,46.4979412 C61.0621039,46.4482942 61.2497296,46.2893578 61.3362175,46.0735294 C61.8421592,44.4011414 62.2537087,42.7015724 62.5689144,40.9828824 C63.1319476,37.3146019 62.7744637,33.5636944 61.5286831,30.0682353 C61.4904955,29.9152941 61.2995573,29.7210588 61.1819394,29.7210588 C59.4871721,29.6828235 57.7924048,29.7210588 56.0586861,29.7210588 C57.5110173,35.2129721 57.4582502,40.9952804 55.9059356,46.4597059 L55.9066993,46.4589412 Z M36.8388489,14.9484706 C31.8774317,17.2255216 27.9375625,21.2665088 25.7835282,26.2875294 L36.8388489,26.2875294 L36.8388489,14.9484706 Z M40.2673348,26.2875294 L51.2844679,26.2875294 C49.1452239,21.2695796 45.2181973,17.2278034 40.2673348,14.9484706 L40.2673348,26.2875294 Z M26.0920843,49.9299412 C28.2735675,54.6609811 32.0910575,58.4419489 36.8396126,60.5746471 L36.8396126,49.9299412 L26.0920843,49.9299412 Z M51.0148632,49.9299412 L40.3062862,49.9299412 L40.3062862,60.5746471 C45.020639,58.405863 48.8147569,54.6343751 51.0148632,49.9299412 Z M59.95077,26.3647647 C57.1447364,21.0916533 52.4944715,17.0403293 46.8905984,14.9867059 C46.9669737,15.1021765 46.9669737,15.1396471 46.9669737,15.1794118 C47.043349,15.2558824 47.1594394,15.3323529 47.2365784,15.4088235 C50.2622459,17.8943583 52.6524308,21.0663739 54.208877,24.6617647 C54.7870379,26.0887059 55.518713,26.5513529 56.9828269,26.3586471 C57.9701689,26.3032069 58.9599077,26.3057603 59.9469513,26.3662941 L59.95077,26.3647647 Z M17.2317889,26.3647647 L17.8481374,26.3647647 C19.0036953,26.3647647 20.1592531,26.3257647 21.3155748,26.3647647 C21.8014441,26.4530809 22.2726612,26.1496821 22.3939936,25.6704118 C23.9857678,21.6872245 26.5402964,18.1620215 29.8283626,15.4111176 C29.9436893,15.3346471 30.0208283,15.2184118 30.210239,15.0639412 C24.7005268,16.8013529 19.3466202,21.8155294 17.2279702,26.3662941 L17.2317889,26.3647647 Z M59.4886996,49.8917059 C58.2178151,49.8917059 56.9851182,49.9681765 55.7524213,49.8534706 C55.0964463,49.7238736 54.4536614,50.1301022 54.2883073,50.7787647 C52.9664023,53.8127745 51.0544888,56.5529472 48.6640323,58.8395294 C48.0866352,59.3794118 47.5084744,59.9192941 46.892126,60.4974118 C50.8216337,59.7648235 57.9474466,53.7481176 59.4886996,49.8909412 L59.4886996,49.8917059 Z M30.1743426,60.4981765 C30.0590159,60.4217059 29.9818769,60.3054706 29.8688415,60.2282353 C27.0977082,57.8785943 24.8308464,54.9910792 23.205099,51.74 C22.8995979,51.1228824 22.7040772,50.3130588 22.2030554,50.0041176 C21.7020336,49.6951765 20.8550319,49.9276471 20.1615444,49.9276471 L17.5418725,49.9276471 C20.3812405,54.8282149 24.8549249,58.5699182 30.1766339,60.4951176 L30.1743426,60.4981765 Z" id="Path_534"></path>
                                    <path d="M59.5230685,10.4764706 C58.8685324,10.0138235 58.2132326,9.51217647 57.5197451,9.04952941 C42.9182074,-0.619597231 23.3950375,2.21807549 12.1421408,15.6451176 C8.59639193,19.833523 6.12401544,24.8243441 4.93918886,30.1852353 C4.10598303,33.9302061 3.88493441,37.7856942 4.28465278,41.6015294 C4.78403275,46.5021914 6.36267714,51.2309764 8.90688426,55.4472941 C9.02221092,55.64 9.09934995,55.7944706 9.21238535,55.9871765 C9.65742265,56.7967925 9.36477481,57.8143034 8.55784926,58.2629412 C8.1814764,58.4753555 7.73505597,58.5255315 7.32101332,58.4019567 C6.90697068,58.278382 6.56084856,57.9916646 6.36206019,57.6075882 C5.51598272,56.1961727 4.74454767,54.7412264 4.05094444,53.2487647 C1.51842863,47.6692678 0.419412093,41.5443173 0.853875545,35.4311176 C1.30008866,27.8258184 4.07031042,20.5416409 8.78926634,14.5653529 C13.7497947,8.01761439 20.7859363,3.35263839 28.74307,1.33594118 C41.0310876,-1.78788235 52.3178253,0.564352941 62.3329148,8.43241176 C62.4856653,8.54788235 62.6384158,8.66182353 62.8721242,8.85682353 C62.8721242,8.58688235 62.9110756,8.43241176 62.9110756,8.23970588 L62.9110756,3.72794118 C62.8997289,3.28114941 63.0693631,2.84876009 63.381384,2.52914814 C63.6934048,2.20953619 64.1212777,2.02988175 64.5676552,2.03105882 C65.4926639,2.02086221 66.2510997,2.7627914 66.2624225,3.68894118 C66.3006102,6.58156863 66.3006102,9.47419608 66.2624225,12.3668235 C66.285495,12.8132714 66.1184923,13.2485911 65.8028505,13.5647726 C65.4872086,13.8809541 65.0525086,14.048366 64.6066066,14.0254706 L55.9372495,14.0254706 C55.0223458,14.0254706 54.2806698,13.282869 54.2806698,12.3668235 C54.2806698,11.4507781 55.0223458,10.7081765 55.9372495,10.7081765 C57.130995,10.6691765 58.3255042,10.7081765 59.5192497,10.7081765 C59.4973552,10.633277 59.4973552,10.5536642 59.5192497,10.4787647 L59.5230685,10.4764706 Z" id="Path_535"></path>
                                    <path d="M14.2226032,66.8253529 L14.2226032,71.955 C14.2315307,72.7144432 13.7311511,73.3856997 13.0014518,73.5931679 C12.2717526,73.8006361 11.4937081,73.4928613 11.1026733,72.8420588 C10.9544038,72.4857189 10.8634093,72.1081241 10.8330686,71.7232941 C10.7941172,70.5280588 10.7941172,69.3320588 10.7941172,68.0978235 C10.7941172,66.4781765 10.7559296,64.8577647 10.7559296,63.2801765 C10.6860828,62.7746233 10.8511576,62.2648661 11.2039953,61.8965328 C11.556833,61.5281994 12.0586266,61.3418011 12.5660236,61.3905882 L20.9252971,61.3905882 C21.3901389,61.3491635 21.8509694,61.5052431 22.1952372,61.8207067 C22.5395049,62.1361703 22.7355137,62.5819735 22.7353911,63.0492353 C22.7568452,63.5262272 22.5687754,63.9887363 22.2206629,64.3150763 C21.8725505,64.6414162 21.3992536,64.7989088 20.9252971,64.7461176 L16.9957894,64.7461176 C17.4578597,65.1284706 17.7664158,65.4014706 18.1123958,65.6714118 C31.175704,75.2326481 49.1138136,74.4476964 61.2942111,63.7818235 C67.2800271,58.6382143 71.2402445,51.5279829 72.4648584,43.7258824 C73.907311,35.627039 72.3600988,27.2793318 68.1114679,20.2379412 C67.4951194,19.1581765 67.5340708,18.3093529 68.2642184,17.6922353 C68.6373819,17.3655643 69.1390358,17.2272543 69.6266158,17.3166116 C70.1141958,17.4059689 70.5343959,17.7132241 70.7677998,18.1510588 C71.6143329,19.614633 72.3857082,21.1205134 73.0789156,22.6628235 C75.3961077,27.8444269 76.4648071,33.4987074 76.1988455,39.1697647 C75.9302947,48.040704 72.500553,56.5226841 66.529736,63.0821176 C61.122124,69.2377116 53.8135364,73.4054543 45.7671182,74.9220588 C34.2497271,77.1595882 23.8878939,74.5397059 14.6823824,67.2474706 C14.646486,67.1335294 14.4922079,67.0180588 14.2226032,66.8253529 Z" id="Path_536"></path>
                                </g>
                            </g>
                        </g>
                    </g>
                </g>
            </g>
        </g>
    </g>
</svg>