<?xml version="1.0" encoding="UTF-8"?>
<svg width="308px" height="853px" viewBox="0 0 308 853" version="1.1" xmlns="http://www.w3.org/2000/svg" xmlns:xlink="http://www.w3.org/1999/xlink">
    <!-- Generator: Sketch 51.2 (57519) - http://www.bohemiancoding.com/sketch -->
    <title>Group 13</title>
    <desc>Created with Sketch.</desc>
    <defs>
        <rect id="path-1" x="0" y="0" width="300" height="845" rx="8"></rect>
        <filter x="-2.3%" y="-0.6%" width="104.7%" height="101.7%" filterUnits="objectBoundingBox" id="filter-2">
            <feOffset dx="0" dy="2" in="SourceAlpha" result="shadowOffsetOuter1"></feOffset>
            <feGaussianBlur stdDeviation="2" in="shadowOffsetOuter1" result="shadowBlurOuter1"></feGaussianBlur>
            <feColorMatrix values="0 0 0 0 0   0 0 0 0 0   0 0 0 0 0  0 0 0 0.5 0" type="matrix" in="shadowBlurOuter1"></feColorMatrix>
        </filter>
    </defs>
    <g id="Page-1" stroke="none" stroke-width="1" fill="none" fill-rule="evenodd">
        <g id="10_首頁new" transform="translate(-915.000000, -1793.000000)">
            <g id="Group-13" transform="translate(919.000000, 1691.000000)">
                <g id="Group-37" transform="translate(0.000000, 104.000000)">
                    <g id="Rectangle-22-Copy-3">
                        <use fill="black" fill-opacity="1" filter="url(#filter-2)" xlink:href="#path-1"></use>
                        <use fill="#FCFCFD" fill-rule="evenodd" xlink:href="#path-1"></use>
                    </g>
                    <g id="Group-9" transform="translate(179.000000, 553.000000)" fill-rule="nonzero">
                        <path d="M18.998088,32 C17.9370664,32.0000005 16.9195573,31.5527235 16.1696606,30.7566788 C15.419764,29.9606341 14.9989865,28.8811136 15.0000018,27.7558749 C15.0000018,25.4147084 23,25.4147084 23,27.7558749 C23,30.0998405 21.2082829,32 18.998088,32 Z" id="Shape" fill="#FFDEA2"></path>
                        <path d="M9,32.9999981 C7.93948584,33.001075 6.92206016,32.554755 6.17180452,31.7593371 C5.42154888,30.9639192 4.99999951,29.884644 5,28.7592149 C5,26.413595 13,26.413595 13,28.7592149 C12.9978894,31.101991 11.2076465,32.9999991 9,32.9999981 Z" id="Shape" fill="#2EFFF6"></path>
                        <path d="M29,32.9999981 C27.9394858,33.001075 26.9220602,32.554755 26.1718045,31.7593371 C25.4215489,30.9639192 24.9999995,29.884644 25,28.7592149 C25,26.413595 33,26.413595 33,28.7592149 C32.9978894,31.101991 31.2076465,32.9999991 29,32.9999981 Z" id="Shape" fill="#EBFFA2"></path>
                        <path d="M39.001913,32.9999981 C37.9408916,33.001075 36.9229794,32.554755 36.1723649,31.7593371 C35.4217505,30.9639192 34.9999995,29.884644 35,28.7592149 C35,26.413595 43,26.413595 43,28.7592149 C43,31.1013347 41.2099955,32.9999981 39.001913,32.9999981 Z" id="Shape" fill="#FF5CFE"></path>
                        <path d="M48,32.9999981 C45.7923535,32.9999991 44.0021106,31.101991 44,28.7592149 C44,26.413595 52,26.413595 52,28.7592149 C52.0000005,29.884644 51.5784511,30.9639192 50.8281955,31.7593371 C50.0779398,32.554755 49.0605142,33.001075 48,32.9999981 Z" id="Shape" fill="#8BCEFF"></path>
                        <path d="M58,32.9999981 C55.7923535,32.9999991 54.0021106,31.101991 54,28.7592149 C54,26.413595 62,26.413595 62,28.7592149 C62.0000005,29.884644 61.5784511,30.9639192 60.8281955,31.7593371 C60.0779398,32.554755 59.0605142,33.001075 58,32.9999981 Z" id="Shape" fill="#2EFFF6"></path>
                        <path d="M68.001913,32.9999981 C66.9408916,33.001075 65.9229794,32.554755 65.1723649,31.7593371 C64.4217505,30.9639192 63.9999995,29.884644 64,28.7592149 C64,26.413595 72,26.413595 72,28.7592149 C72,31.1013347 70.2099955,32.9999981 68.001913,32.9999981 Z" id="Shape" fill="#A2FFCE"></path>
                        <polygon id="Shape" fill="#FFBC00" points="10.6174257 11 0 24.8502088 76 25 65.299802 11"></polygon>
                        <path d="M67.9335228,34.718028 C71.2822253,34.7138573 73.9958504,31.9864344 74,28.6207051 L74,25.3014299 C74,25.3014299 74,25.2825059 74,25.2711515 C73.9963664,25.1347563 73.9683029,25.0001361 73.9171555,24.8737468 C73.9048923,24.8440129 73.8910654,24.814955 73.8757332,24.7866963 C73.8539365,24.7339544 73.8274705,24.6832867 73.7966544,24.635304 L63.9230955,10.2719642 C63.7040672,9.9565632 63.3455367,9.7686141 62.9628524,9.768585 L53.7821749,9.768585 L53.7821749,1.17328995 C53.7821749,0.525299801 53.2595325,0 52.6148205,0 L24.4363914,0 C23.7916794,0 23.269037,0.525299801 23.269037,1.17328995 L23.269037,9.768585 L14.0883595,9.768585 C13.7056752,9.7686141 13.3471447,9.9565632 13.1281164,10.2719642 L3.26585448,24.6239496 C3.23503835,24.6719323 3.20857241,24.7225999 3.18677563,24.7753419 C3.17144346,24.8036006 3.15761654,24.8326584 3.14535338,24.8623924 C3.09420594,24.9887817 3.06614249,25.1234019 3.06250888,25.2597971 C3.06250888,25.2597971 3.06250888,25.2597971 3.06250888,25.2900755 L3.06250888,28.6093506 C3.06150985,30.2284689 3.70049029,31.7816711 4.83888173,32.9272704 C5.97727316,34.0728697 7.52182445,34.7170245 9.13275177,34.718028 C9.71174604,34.7102283 10.2864737,34.6171412 10.8385955,34.4417371 L10.8385955,60.6553054 L4.23362894,60.6553054 C3.80143738,60.6306038 3.39113221,60.8483115 3.16762809,61.2209248 C2.94412397,61.5935381 2.94412397,62.0598677 3.16762809,62.432481 C3.39113221,62.8050943 3.80143738,63.022802 4.23362894,62.9981004 L72.8364113,62.9981004 C73.4543789,62.962781 73.9374911,62.4488161 73.9374911,61.8267029 C73.9374911,61.2045897 73.4543789,60.6906248 72.8364113,60.6553054 L66.2276791,60.6553054 L66.2276791,34.4417371 C66.7799503,34.6165075 67.3545847,34.7095795 67.9335228,34.718028 Z M24.4439228,12.1227345 L26.4999728,12.1227345 L22.960253,24.12814 L15.907173,24.12814 L21.8004299,12.1227345 L24.4439228,12.1227345 Z M55.262079,12.1227345 L61.1591016,24.12814 L54.1060216,24.12814 L50.5700674,12.1227345 L55.262079,12.1227345 Z M48.1374515,12.1227345 L51.6734056,24.12814 L44.4885276,24.12814 L43.3098762,12.1227345 L48.1374515,12.1227345 Z M40.9826987,12.1227345 L42.1613501,24.12814 L34.9275184,24.12814 L36.1061698,12.1227345 L40.9826987,12.1227345 Z M32.577747,24.1205704 L25.3928689,24.1205704 L28.9288231,12.1151649 L33.7563984,12.1151649 L32.577747,24.1205704 Z M15.199229,26.4633655 L22.6665315,26.4633655 L22.6665315,28.6131354 C22.7097972,29.9822426 22.0077815,31.2663774 20.8347813,31.963793 C19.6617812,32.6612085 18.2039793,32.6612085 17.0309792,31.963793 C15.8579791,31.2663774 15.1559634,29.9822426 15.199229,28.6131354 L15.199229,26.4633655 Z M24.9899434,26.4633655 L32.4610115,26.4633655 L32.4610115,28.6131354 C32.4610115,30.6867039 30.788556,32.3676633 28.7254775,32.3676633 C26.6623989,32.3676633 24.9899434,30.6867039 24.9899434,28.6131354 L24.9899434,26.4633655 Z M34.7806577,26.4633655 L42.2479602,26.4633655 L42.2479602,28.6131354 C42.2912259,29.9822426 41.5892102,31.2663774 40.41621,31.963793 C39.2432099,32.6612085 37.785408,32.6612085 36.6124079,31.963793 C35.4394078,31.2663774 34.7373921,29.9822426 34.7806577,28.6131354 L34.7806577,26.4633655 Z M44.5713721,26.4633655 L52.0424402,26.4633655 L52.0424402,28.6131354 C52.0424402,30.6867039 50.3699847,32.3676633 48.3069062,32.3676633 C46.2438276,32.3676633 44.5713721,30.6867039 44.5713721,28.6131354 L44.5713721,26.4633655 Z M54.3620864,26.4633655 L61.8293889,26.4633655 L61.8293889,28.6131354 C61.8726546,29.9822426 61.1706389,31.2663774 59.9976387,31.963793 C58.8246386,32.6612085 57.3668367,32.6612085 56.1938366,31.963793 C55.0208365,31.2663774 54.3188208,29.9822426 54.3620864,28.6131354 L54.3620864,26.4633655 Z M71.6314003,28.6131354 C71.6314003,30.6867039 69.9589447,32.3676633 67.8958662,32.3676633 C65.8327877,32.3676633 64.1603321,30.6867039 64.1603321,28.6131354 L64.1603321,26.4633655 L71.6314003,26.4633655 L71.6314003,28.6131354 Z M70.57325,24.1205704 L63.7197499,24.1205704 L57.826493,12.1151649 L62.3226903,12.1151649 L70.57325,24.1205704 Z M25.5736206,2.3503647 L51.4211064,2.3503647 L51.4211064,9.7723698 L25.5736206,9.7723698 L25.5736206,2.3503647 Z M14.6532084,12.1151649 L19.1494057,12.1151649 L13.308868,24.1205704 L6.45536796,24.1205704 L14.6532084,12.1151649 Z M5.34449845,28.6131354 L5.34449845,26.4633655 L12.8155666,26.4633655 L12.8155666,28.6131354 C12.8155666,30.6867039 11.1431111,32.3676633 9.08003254,32.3676633 C7.01695403,32.3676633 5.34449845,30.6867039 5.34449845,28.6131354 Z M25.7769662,60.6477358 L25.7769662,38.6731505 L37.4090879,38.6731505 L37.4090879,60.6477358 L25.7769662,60.6477358 Z M39.7400311,60.6477358 L39.7400311,38.6731505 L51.1838699,38.6731505 L51.1838699,60.6477358 L39.7400311,60.6477358 Z M63.840251,60.6477358 L53.5185787,60.6477358 L53.5185787,37.5036454 C53.5185787,36.8556552 52.9959363,36.3303554 52.3512243,36.3303554 L24.6096118,36.3303554 C23.9648997,36.3303554 23.4422574,36.8556552 23.4422574,37.5036454 L23.4422574,60.6477358 L13.120585,60.6477358 L13.120585,33.1284093 C13.4385515,32.8422997 13.7262679,32.5239487 13.9791554,32.1784229 C15.1108541,33.7637438 16.9332192,34.7038807 18.8745126,34.7038807 C20.8158059,34.7038807 22.638171,33.7637438 23.7698697,32.1784229 C24.9015684,33.7637438 26.7239335,34.7038807 28.6652269,34.7038807 C30.6065203,34.7038807 32.4288854,33.7637438 33.5605841,32.1784229 C34.6922828,33.7637438 36.5146479,34.7038807 38.4559413,34.7038807 C40.3972346,34.7038807 42.2195997,33.7637438 43.3512984,32.1784229 C44.4829971,33.7637438 46.3053622,34.7038807 48.2466556,34.7038807 C50.187949,34.7038807 52.0103141,33.7637438 53.1420128,32.1784229 C54.2737115,33.7637438 56.0960766,34.7038807 58.03737,34.7038807 C59.9786633,34.7038807 61.8010284,33.7637438 62.9327271,32.1784229 C63.1845949,32.525935 63.4723918,32.8456437 63.7912975,33.1321941 L63.840251,60.6477358 Z" id="Shape" fill="#101F57"></path>
                    </g>
                    <g id="Group-8" transform="translate(43.000000, 440.000000)" fill-rule="nonzero">
                        <rect id="Rectangle-path" fill="#B95900" x="72" y="44" width="14" height="2" rx="1"></rect>
                        <rect id="Rectangle-path" fill="#B95900" x="76" y="39" width="11" height="2" rx="1"></rect>
                        <rect id="Rectangle-path" fill="#B95900" x="72" y="24" width="11" height="2" rx="1"></rect>
                        <rect id="Rectangle-path" fill="#FFD62E" x="76" y="27" width="8" height="9"></rect>
                        <rect id="Rectangle-path" fill="#FFFFFF" x="85" y="30" width="19" height="6" rx="3"></rect>
                        <path d="M87.4501794,46 L72.5416375,46 C71.6937369,46 71,45.1373011 71,44.0766058 C71,43.0159104 71.6937369,42.1532115 72.5416375,42.1532115 L87.4501794,42.1532115 C88.2980801,42.1532115 88.9872827,43.0159104 88.9872827,44.0766058 C88.9872827,45.1373011 88.2980801,46 87.4501794,46 Z M72.5416375,43.0960519 C72.2061047,43.0960519 71.9068456,43.567472 71.9068456,44.0766058 C71.9068456,44.5857395 72.2061047,45.0571597 72.5416375,45.0571597 L87.4501794,45.0571597 C87.7857123,45.0571597 88.0804371,44.5857395 88.0804371,44.0766058 C88.0804371,43.567472 87.7857123,43.0960519 87.4501794,43.0960519 L72.5416375,43.0960519 Z M83.9316184,41.4649381 L76.0828697,41.4649381 C75.2651253,41.4187785 74.6248084,40.7159213 74.6248084,39.8644667 C74.6248084,39.0130121 75.2651253,38.3101549 76.0828697,38.2639953 L83.9542896,38.2639953 C84.772034,38.3101549 85.4123508,39.0130121 85.4123508,39.8644667 C85.4123508,40.7159213 84.772034,41.4187785 83.9542896,41.4649381 L83.9316184,41.4649381 Z M76.0601985,39.2068356 C75.7315694,39.2357899 75.4790084,39.521569 75.4790084,39.8644667 C75.4790084,40.2073644 75.7315694,40.4931436 76.0601985,40.5220978 L83.9316184,40.5220978 C84.2602475,40.4931436 84.5128086,40.2073644 84.5128086,39.8644667 C84.5128086,39.521569 84.2602475,39.2357899 83.9316184,39.2068356 L76.0601985,39.2068356 Z M84.1492614,36.8497348 L83.2424158,36.8497348 L83.2424158,26.6152033 L84.1492614,26.6152033 L84.1492614,36.8497348 Z M76.7494012,36.8497348 L75.8425556,36.8497348 L75.8425556,26.6152033 L76.7494012,26.6152033 L76.7494012,36.8497348 Z M99.6563214,34.2050678 L99.629116,34.2050678 L85.1830654,34.0447849 L85.1830654,33.1019446 L99.629116,33.2622275 C100.011892,33.2686404 100.380522,33.1119291 100.649317,32.8285209 C100.927595,32.5409331 101.084071,32.1498371 101.084071,31.7418975 C101.084071,31.3339578 100.927595,30.9428619 100.649317,30.655274 C100.377633,30.3763808 100.01091,30.2204801 99.629116,30.2215675 L85.1830654,30.3818503 L85.1830654,29.43901 L99.629116,29.2787272 C100.252929,29.2709145 100.853213,29.5260005 101.293178,29.9858574 C101.745392,30.4492229 102,31.0817753 102,31.7418975 C102,32.4020196 101.745392,33.0345721 101.293178,33.4979375 C100.857712,33.9422701 100.27099,34.189663 99.6608556,34.186211 L99.6563214,34.2050678 Z M83.9316184,25.2009428 L76.0828697,25.2009428 C75.2651253,25.1547832 74.6248084,24.451926 74.6248084,23.6004714 C74.6248084,22.7490168 75.2651253,22.0461596 76.0828697,22 L83.9542896,22 C84.772034,22.0461596 85.4123508,22.7490168 85.4123508,23.6004714 C85.4123508,24.451926 84.772034,25.1547832 83.9542896,25.2009428 L83.9316184,25.2009428 Z M76.0601985,22.9428403 C75.7315694,22.9717946 75.4790084,23.2575737 75.4790084,23.6004714 C75.4790084,23.9433691 75.7315694,24.2291483 76.0601985,24.2581025 L83.9316184,24.2581025 C84.2602475,24.2291483 84.5128086,23.9433691 84.5128086,23.6004714 C84.5128086,23.2575737 84.2602475,22.9717946 83.9316184,22.9428403 L76.0601985,22.9428403 Z" id="Shape" fill="#101F57"></path>
                        <path d="M96.9871569,44.9996091 C96.5436007,45.006372 96.1521455,44.7265184 96.0378428,44.3209389 C95.9235401,43.9153594 96.1157504,43.4882335 96.50397,43.2851202 C96.5377931,43.2851202 99.5045608,41.6986465 100.369465,41.1362942 C101.670782,40.3000465 102.861472,39.3192208 103.916057,38.2148051 C105.00806,36.9575133 105.65553,35.1927328 104.18181,34.0177364 C103.331401,33.3410848 100.838157,34.086316 99.349941,34.5297971 C98.651123,34.772174 97.9271344,34.9438187 97.1900954,35.0418578 C96.8687942,35.0583742 96.5566282,34.9375389 96.3396864,34.7126759 C96.1319161,34.4977933 95.7888534,34.1366076 96.1754029,31.9694937 C96.2290717,31.6689881 96.4374412,31.4135352 96.7310679,31.2882701 C98.7545124,30.4095219 100.694398,29.3678518 102.529311,28.1747584 C104.684325,26.6797241 104.756803,25.774474 104.616678,24.4668905 C104.471269,23.168146 103.44165,22.1139619 102.084779,21.8745833 C100.12304,21.5911211 98.0405044,22.6243864 98.0211769,22.6381023 C97.551509,22.8792424 96.9641729,22.7144637 96.7093247,22.2700586 C96.4544766,21.8256535 96.6286222,21.2699092 97.0982899,21.0287688 C97.204591,20.9739051 99.7509861,19.6937535 102.379523,20.068655 C104.608937,20.4310787 106.309999,22.1546772 106.539762,24.2840116 C106.752365,26.2773907 106.351319,27.7907129 103.669632,29.6515048 C101.884077,30.83073 99.9961134,31.8646471 98.0260088,32.7421567 C98.0260088,32.8381681 98.0018495,32.9296075 97.9921857,33.0210469 C98.2434429,32.9524673 98.5188595,32.8701719 98.7894441,32.7878764 C100.900971,32.1615165 103.785597,31.3019861 105.452592,32.6232855 C107.520632,34.2737667 107.510968,36.9895171 105.452592,39.3806576 C104.279009,40.6230222 102.948296,41.7239988 101.490459,42.6587603 C100.524085,43.2622604 97.5959724,44.8213022 97.4751757,44.8898818 C97.3255454,44.9664641 97.1572013,45.004315 96.9871569,44.9996091 Z" id="Shape" fill="#101F57"></path>
                        <path d="M96.9915624,58.998941 L96.9464351,58.998941 C96.6239867,59.0148253 96.3178609,58.8510994 96.1433724,58.5694373 C95.9688839,58.2877751 95.9525416,57.9309679 96.1005015,57.6334214 C96.2484614,57.335875 96.5382449,57.1427937 96.8606933,57.1269094 C97.460886,56.8648249 100.570155,54.8149502 101.824693,53.0505604 C103.765166,50.308034 103.241689,48.9742114 102.682111,48.2066784 C102.122533,47.4391455 99.5502786,47.9726745 97.5240642,48.8338091 C97.3020795,48.92788 97.0531227,48.9264664 96.8321446,48.8298801 C96.6111666,48.7332938 96.436336,48.5494762 96.3462424,48.3190003 C96.1603283,47.8408325 96.3822735,47.2967802 96.8426424,47.1021798 C97.7451878,46.704373 102.488064,44.8510617 104.117158,47.0740993 C105.529642,48.9976118 105.24534,51.3844522 103.277791,54.1597392 C101.978126,55.9990103 98.0610787,58.998941 96.9915624,58.998941 Z" id="Shape" fill="#101F57"></path>
                        <path d="M64.6668839,104.996165 C64.3165215,104.996216 63.9938998,104.808794 63.8249385,104.507051 C63.6559772,104.205308 63.6674592,103.837074 63.8549031,103.546071 C66.0410053,100.159369 71.777722,90.6558198 72.0611946,87.4344379 C72.2918164,84.8365493 69.7357584,80.0139233 67.386299,77.604972 C63.0315004,73.1526684 58.0398889,69.3481057 52.5688498,66.3112416 C46.226751,62.8159005 40.1248831,62.1782369 37.88593,63.5858202 C28.8868761,69.2539409 2.00022054,104.268756 1.7311618,104.623014 C1.41141282,105.040403 0.808028759,105.123935 0.38346579,104.809589 C-0.0410971785,104.495243 -0.1260657,103.902055 0.193683286,103.484666 C1.30835521,102.029849 27.5800193,67.818017 36.8529366,61.9892996 C40.0528138,59.9818401 47.0579503,61.1060174 53.5057508,64.6674866 C59.1449069,67.7913114 64.2890364,71.7091344 68.7748343,76.2965808 C71.1771445,78.7433196 74.2905385,84.0288421 73.9782382,87.5950347 C73.5938685,91.9358704 65.8103835,104.046755 65.4788647,104.561609 C65.301523,104.833354 64.9952961,104.997241 64.6668839,104.996165 Z" id="Shape" fill="#101F57"></path>
                        <path d="M70.0014317,64.9996789 C69.4663696,64.9996789 69.032616,64.575537 69.032616,64.0523314 C69.1827824,54.1051827 65.9760023,47.2179664 65.9420938,47.1469153 C65.8818012,47.0176793 65.8520015,46.8768395 65.8549004,46.7348191 C66.0389753,34.2961465 66.203674,15.5197191 65.9372497,12.8955665 C65.3363391,12.8873624 64.7414785,13.0137439 64.1982254,13.265032 C63.8350641,13.7296486 63.5804299,14.2664359 63.4522373,14.8376289 L62.1782446,19.5033153 C62.1401961,19.6414722 62.0706387,19.7694072 61.9747933,19.8775176 C61.9069762,19.9533054 55.3287173,27.3994567 53.4104621,30.7341199 C52.0734964,33.059858 50.2957195,34.575614 48.8715603,35.7929555 C48.1847357,36.3312154 47.5535948,36.934092 46.9872137,37.5929158 C46.2896664,38.5023694 45.8536993,44.0632992 45.8536993,48.6958284 C45.8552208,48.7644867 45.8470708,48.8330231 45.8294789,48.8995082 L42.9230317,61.6508055 C42.8612937,61.9942825 42.6115593,62.2768171 42.2729388,62.386282 C41.9343182,62.4957468 41.5615744,62.4144388 41.3026353,62.1746261 C41.0436961,61.9348133 40.9404383,61.5752793 41.0338409,61.2387093 L43.9402882,48.5868835 C43.9402882,46.0622024 44.0710783,38.2655325 45.4613289,36.4560988 C46.1061573,35.6876237 46.8301209,34.9860516 47.621788,34.3624608 C49.0023505,33.1830132 50.571832,31.8472532 51.7489431,29.8057193 C53.6187575,26.5468439 59.3686789,19.9627788 60.3859355,18.8070149 L61.6017992,14.3544816 C61.7422775,13.8097568 62.3090347,11.9861129 63.5055222,11.5124391 C65.5497234,10.7119305 67.0320115,10.8540326 67.676274,11.9055884 C67.8506608,12.1897926 68.3156923,12.9429339 67.8167522,46.5642966 C68.3786654,47.819532 71.1397902,54.5172788 70.9944679,64.0902253 C70.9734515,64.6078925 70.5310708,65.0130385 70.0014317,64.9996789 Z" id="Shape" fill="#101F57"></path>
                        <path d="M64.7268184,48.9999997 C64.4246596,49.0002298 64.1377945,48.8761686 63.9429021,48.6609776 C62.918175,47.5484122 60.5151898,46.884693 59.66979,46.7223444 C59.4758408,46.6843772 59.2978664,46.5948113 59.1574264,46.4644966 C57.4666266,44.8887602 58.0865865,40.7775208 58.2249247,39.9705528 C58.2225685,39.9371641 58.2225685,39.9036673 58.2249247,39.8702787 C58.4862301,38.9869113 60.7867425,31.165529 61.7038733,29.6375422 C62.3534808,28.5710282 63.3147325,27.6983747 64.4757602,27.121139 C64.8072984,26.9486496 65.2140023,26.9611494 65.5326258,27.153621 C65.8512492,27.3460925 66.0295544,27.6869805 65.9959717,28.0394565 C65.962389,28.3919325 65.7224242,28.6982086 65.3723964,28.8353491 C64.5927453,29.244936 63.9451824,29.841835 63.4971458,30.5638842 C62.9079277,31.5570756 61.1761388,37.057828 60.2128953,40.3238997 C59.9259717,42.02856 59.9464663,44.1438667 60.4332117,44.9317349 C61.4579388,45.1657078 64.0966112,45.8867266 65.4902401,47.4290383 C65.7475491,47.7131462 65.804548,48.1105971 65.6363286,48.4477073 C65.4681092,48.7848175 65.1052521,49.0003037 64.7063238,48.9999997 L64.7268184,48.9999997 Z" id="Shape" fill="#101F57"></path>
                        <path d="M71.9043588,84 C71.5203705,83.9996813 71.1783726,83.7412925 71.0511592,83.3553843 C70.9239459,82.9694761 71.0392145,82.5400697 71.3387255,82.2841224 C71.4473271,82.1877248 82.5382647,72.6443605 85.2578295,65.5976945 C85.3806949,65.2791285 85.6537847,65.0545798 85.9742287,65.0086339 C86.2946727,64.9626879 86.6137877,65.1023249 86.8113662,65.3749449 C87.0089446,65.6475649 87.0549697,66.0117505 86.9321041,66.3303164 C84.0360616,73.8155915 72.9451241,83.3830552 72.4518919,83.7879252 C72.2963165,83.9209688 72.1038269,83.9955254 71.9043588,84 Z" id="Shape" fill="#101F57"></path>
                        <path d="M94.9439197,66 L68.8466968,66 C68.3260864,66 67.9040483,65.5742501 67.9040483,65.0490609 L67.9040483,63.4752567 C67.9040483,62.9500676 68.3260864,62.5243176 68.8466968,62.5243176 C69.3673072,62.5243176 69.7893453,62.9500676 69.7893453,63.4752567 L69.7893453,64.0981218 L94.9439197,64.0981218 C95.9195608,64.0981218 96.0798111,62.9332214 96.098664,62.7287695 L96.098664,4.52178808 C96.098664,3.02405902 94.717684,2.14444036 94.2416466,1.8924415 L68.6440274,1.8924415 C67.4987095,1.8924415 66.9943925,3.58986777 66.8907012,3.9797528 L66.8907012,28.2286995 C66.8907012,28.7538887 66.4686631,29.1796386 65.9480527,29.1796386 C65.4274424,29.1796386 65.0054043,28.7538887 65.0054043,28.2286995 L65.0054043,3.87990419 C64.9981986,3.81671662 64.9981986,3.75290395 65.0054043,3.68971638 C65.2787723,2.32036409 66.3533916,7.27219455e-05 68.6251744,7.27219455e-05 L94.4725954,7.27219455e-05 C94.6041947,-0.0016117584 94.7345444,0.0259862015 94.8543681,0.0809025443 C94.9816256,0.133204194 97.9981007,1.50731117 97.9981007,4.53129747 L97.9981007,62.7810712 C98.0006331,62.8031862 98.0006331,62.8255219 97.9981007,62.8476369 C97.9038359,63.9317075 97.16857,66 94.9439197,66 Z" id="Shape" fill="#101F57"></path>
                        <path d="M97.0571429,10 L65.9428571,10 C65.4221315,10 65,9.55228475 65,9 C65,8.44771525 65.4221315,8 65.9428571,8 L97.0571429,8 C97.5778685,8 98,8.44771525 98,9 C98,9.55228475 97.5778685,10 97.0571429,10 Z" id="Shape" fill="#101F57"></path>
                        <path d="M95.0743598,59 L66.9256402,59 C66.4144232,59 66,58.5522847 66,58 C66,57.4477153 66.4144232,57 66.9256402,57 L95.0743598,57 C95.5855768,57 96,57.4477153 96,58 C96,58.5522847 95.5855768,59 95.0743598,59 Z" id="Shape" fill="#101F57"></path>
                        <path d="M82.1531404,7 L77.8468596,7 C77.3791519,7 77,6.55228475 77,6 C77,5.44771525 77.3791519,5 77.8468596,5 L82.1531404,5 C82.6208481,5 83,5.44771525 83,6 C83,6.55228475 82.6208481,7 82.1531404,7 Z" id="Shape" fill="#101F57"></path>
                        <path d="M82.0000395,63 C80.7861912,62.9999984 79.6919664,62.3904254 79.2279408,61.4557134 C78.7639153,60.5210015 79.0215466,59.4453787 79.8806215,58.7307409 C80.7396964,58.0161032 82.0308947,57.8033028 83.1517308,58.1916344 C84.272567,58.579966 85.0021286,59.492891 84.9999953,60.5044299 C84.9970871,61.8834056 83.6548126,63.0000021 82.0000395,63 Z M82.0000395,59.7619099 C81.5079406,59.7619099 81.1090157,60.0943474 81.1090157,60.5044299 C81.1090157,60.9145124 81.5079406,61.2469499 82.0000395,61.2469499 C82.4921383,61.2469499 82.8910633,60.9145124 82.8910633,60.5044299 C82.8910633,60.0943474 82.4921383,59.7619099 82.0000395,59.7619099 Z" id="Shape" fill="#101F57"></path>
                        <path d="M0,103.68362 C0,103.68362 29.6870883,58.0713975 41.5119324,61.1490222 C53.3367765,64.2266469 76.2654376,80.915919 73.8187524,87.5560984 C71.3720672,94.1962777 48.5347362,126 48.5347362,126 L0,103.68362 Z" id="Shape" fill="#B9F6FF" opacity="0.44"></path>
                    </g>
                    <g id="Group-11" transform="translate(141.000000, 101.000000)" fill-rule="nonzero">
                        <polygon id="Shape" fill="#E7C700" points="68 92.9080675 80.3610785 98 84 95.8198874 84 95.0919325 71.63517 90 68 92.1801126"></polygon>
                        <polygon id="Shape" fill="#E7C700" points="100 92.9080675 87.63517 98 84 95.8198874 84 95.0919325 96.3610785 90 100 92.1801126"></polygon>
                        <polyline id="Shape" fill="#E7C700" points="73 88.4007491 71.5703758 89 68 86.8202247 68 86.093633 72.9963154 84"></polyline>
                        <polyline id="Shape" fill="#E7C700" points="95 88.2734082 96.4259396 89 100 86.8202247 100 86.093633 95 84"></polyline>
                        <path d="M84,96 L84,107" id="Shape" fill="#E7C700"></path>
                        <polyline id="Shape" fill="#E7C700" points="96 95 96 101.750484 83.5018965 107 71 101.750484 71 95"></polyline>
                        <polyline id="Shape" fill="#E7C700" points="73 91.0646492 73 83 80 85.9315681 80 94"></polyline>
                        <polyline id="Shape" fill="#E7C700" points="87 94 87 83 80 85.9315681 80 92.5323246"></polyline>
                        <polyline id="Shape" fill="#E7C700" points="88 83 80.4980655 80 73 83"></polyline>
                        <polyline id="Shape" fill="#E7C700" points="89 81.2493551 89 75.2480653 83.5 73 78 75.2480653 78 82"></polyline>
                        <polyline id="Shape" fill="#E7C700" points="89 75 83.5 77 78 75"></polyline>
                        <path d="M94,82 L87,85" id="Shape" fill="#E7C700"></path>
                        <path d="M82,77 L82,81" id="Shape" fill="#E7C700"></path>
                        <polyline id="Shape" fill="#E7C700" points="85 81.7627235 89.7160221 80 96 82.2015131 96 91"></polyline>
                        <rect id="Rectangle-path" fill="#E7C700" x="73" y="83" width="12" height="4"></rect>
                        <rect id="Rectangle-path" fill="#E7C700" x="78" y="87" width="15" height="9"></rect>
                        <rect id="Rectangle-path" fill="#E7C700" x="85" y="83" width="9" height="9"></rect>
                        <path d="M80.8784494,98 L68,92.8071313 L68,91.4213938 L72.1215506,89 L85,94.1928687 L85,95.5786062 L80.8784494,98 Z M69.1169514,92.0741491 L80.781647,96.778363 L83.8830486,94.9550243 L83.8830486,94.9222042 L72.2146299,90.2179903 L69.1169514,92.041329 L69.1169514,92.0741491 Z" id="Shape" fill="#101F57"></path>
                        <path d="M89.1187295,98 L85,95.5786062 L85,94.1928687 L97.8775465,89 L102,91.4213938 L102,92.8071313 L89.1187295,98 Z M86.1171961,94.958671 L89.2118291,96.7820097 L100.882804,92.0777958 L100.882804,92.0449757 L97.7844469,90.221637 L86.1171961,94.9258509 L86.1171961,94.958671 Z" id="Shape" fill="#101F57"></path>
                        <polygon id="Shape" fill="#101F57" points="72.2440895 90 68 87.1658537 68 85.5481707 73.5591054 83 74 84.1823171 69.1501597 86.4060976 69.1501597 86.4402439 72.3399361 88.570122 73.5591054 88.0109756 74 89.197561"></polygon>
                        <polygon id="Shape" fill="#101F57" points="96.76 90 95 89.0164234 95.5142857 87.8753041 96.7104762 88.5437956 99.8571429 86.4318735 99.8571429 86.3978102 95.0419048 84.1794404 95.4761905 83 101 85.5419708 101 87.1557178"></polygon>
                        <rect id="Rectangle-path" fill="#101F57" x="85" y="95" width="1" height="11"></rect>
                        <polygon id="Shape" fill="#101F57" points="84.9981135 106 72 100.783088 72 94 73.1319112 94 73.1319112 100.044118 84.9981135 104.808824 96.8680888 100.044118 96.8680888 94 98 94 98 100.783088"></polygon>
                        <polygon id="Shape" fill="#101F57" points="83 93 81.7941045 93 81.7941045 85.21093 75.2058955 82.6989453 75.2058955 90.0278044 74 90.0278044 74 81 83 84.4324065"></polygon>
                        <polygon id="Shape" fill="#101F57" points="90 93 88.7941045 93 88.7941045 82.6989453 82.2058955 85.21093 82.2058955 91.5119847 81 91.5119847 81 84.4324065 90 81"></polygon>
                        <polygon id="Shape" fill="#101F57" points="88.5824975 83 81.5 80.2007435 74.4175025 83 74 81.9665428 81.5 79 89 81.9665428"></polygon>
                        <polygon id="Shape" fill="#101F57" points="79.194426 80 78 80 78 73.3358779 84 71 90 73.3358779 90 79.2985135 88.805574 79.2985135 88.805574 74.0482121 84 72.1787867 79.194426 74.0482121"></polygon>
                        <polygon id="Shape" fill="#101F57" points="83.5 76 78 73.9353741 78.4583333 73 83.5 74.8911565 88.5416667 73 89 73.9353741"></polygon>
                        <rect id="Rectangle-path" fill="#101F57" transform="translate(92.000000, 82.500000) rotate(-21.790000) translate(-92.000000, -82.500000) " x="88" y="82" width="8" height="1"></rect>
                        <rect id="Rectangle-path" fill="#101F57" x="83" y="76" width="1" height="4"></rect>
                        <polygon id="Shape" fill="#101F57" points="97 91 95.8694758 91 95.8694758 82.3079179 90.5974649 80.255132 86.4182939 81.9912023 86 80.9042033 90.5861596 79 97 81.4946237"></polygon>
                        <path d="M18.998088,32 C17.9370664,32.0000005 16.9195573,31.5527235 16.1696606,30.7566788 C15.419764,29.9606341 14.9989865,28.8811136 15.0000018,27.7558749 C15.0000018,25.4147084 23,25.4147084 23,27.7558749 C23,30.0998405 21.2082829,32 18.998088,32 Z" id="Shape" fill="#FFDEA2"></path>
                        <path d="M10.001913,33 C7.79171746,33 6,31.1008037 6,28.7580264 C6,26.4139912 14,26.4139912 14,28.7580264 C14.000001,31.0992209 12.2106142,32.9977618 10.001913,33 Z" id="Shape" fill="#2EFFF6"></path>
                        <path d="M30.001913,33 C27.7917175,33 26,31.1008037 26,28.7580264 C26,26.4139912 34,26.4139912 34,28.7580264 C34.000001,31.0992209 32.2106142,32.9977618 30.001913,33 Z" id="Shape" fill="#EBFFA2"></path>
                        <path d="M39.998087,33 C37.7893858,32.9977618 35.999999,31.0992209 36,28.7580264 C36,26.4139912 44,26.4139912 44,28.7580264 C44,31.1008037 42.2082825,33 39.998087,33 Z" id="Shape" fill="#FF5CFE"></path>
                        <path d="M49,33 C46.790861,33 45,31.1008037 45,28.7580264 C45,26.4139912 53,26.4139912 53,28.7580264 C52.9978919,31.099877 51.2082652,32.9977643 49,33 Z" id="Shape" fill="#8BCEFF"></path>
                        <path d="M59,33 C56.790861,33 55,31.1008037 55,28.7580264 C55,26.4139912 63,26.4139912 63,28.7580264 C62.9978919,31.099877 61.2082652,32.9977643 59,33 Z" id="Shape" fill="#2EFFF6"></path>
                        <path d="M70.001913,33 C67.7917175,33 66,31.1008037 66,28.7580264 C66,26.4139912 74,26.4139912 74,28.7580264 C74.000001,31.0992209 72.2106142,32.9977618 70.001913,33 Z" id="Shape" fill="#A2FFCE"></path>
                        <polygon id="Shape" fill="#FFBC00" points="10.7571287 11 0 25.8433829 77 26 66.1590099 11"></polygon>
                        <path d="M69.7808714,34.7070616 C73.1767388,34.7028905 75.928584,31.9751401 75.932792,28.6090066 L75.932792,25.289333 C75.9350555,25.2806432 75.9350555,25.2715259 75.932792,25.2628361 C75.933098,25.1263737 75.905831,24.9912324 75.8525994,24.8653838 C75.8525994,24.8313164 75.8220498,24.8048196 75.8105937,24.7745375 C75.78774,24.7221412 75.7609332,24.6715276 75.7304011,24.6231271 L65.7292341,10.2732037 C65.5088676,9.95532321 65.1445709,9.76556504 64.7554664,9.76597878 L55.4378462,9.76597878 L55.4378462,1.16965169 C55.4378478,0.858785451 55.3130051,0.560706442 55.0908898,0.341246213 C54.8687745,0.121785985 54.5676607,-0.00099990585 54.2540502,6.13377761e-06 L25.6787419,6.13377761e-06 C25.3651313,-0.00099990585 25.0640175,0.121785985 24.8419022,0.341246213 C24.6197869,0.560706442 24.4949442,0.858785451 24.4949458,1.16965169 L24.4949458,9.75083774 L15.1811443,9.75083774 C14.7932265,9.75101466 14.4303436,9.94078055 14.2111953,10.2580627 L4.21002833,24.607986 C4.17949624,24.6563865 4.15268937,24.7070001 4.12983569,24.7593965 L4.08401133,24.8502427 C4.03040492,24.9840506 4.00193295,25.1264469 4,25.2704067 C4,25.2704067 4,25.2704067 4,25.2969035 L4,28.6165771 C4.00210651,31.9835746 6.75518159,34.7125441 10.1519206,34.7146322 C10.7390127,34.7061826 11.3217405,34.6130995 11.8817902,34.4383081 L11.8817902,60.6550238 L5.17997732,60.6550238 C4.55330587,60.6903475 4.06338928,61.2043741 4.06338928,61.826562 C4.06338928,62.4487499 4.55330587,62.9627766 5.17997732,62.9981002 L74.748996,62.9981002 C75.1872748,63.0228047 75.6033589,62.8050709 75.8300109,62.4324129 C76.056663,62.0597548 76.056663,61.5933692 75.8300109,61.2207112 C75.6033589,60.8480532 75.1872748,60.6303193 74.748996,60.6550238 L68.0471831,60.6550238 L68.0471831,34.4307376 C68.6084688,34.6058391 69.1925018,34.6989253 69.7808714,34.7070616 Z M25.6787419,12.1090552 L27.7599316,12.1090552 L24.1741753,24.1348285 L17.0217562,24.1348285 L22.9980167,12.1279815 L25.6787419,12.1090552 Z M56.9309566,12.1090552 L62.9072172,24.1348285 L55.7586167,24.1348285 L52.1690417,12.1279815 L56.9309566,12.1279815 L56.9309566,12.1090552 Z M49.7021636,12.1090552 L53.2917386,24.1159022 L46.005665,24.1159022 L44.8104129,12.1090552 L49.7021636,12.1090552 Z M42.4466396,12.1090552 L43.6418917,24.1159022 L36.3138125,24.1159022 L37.5090646,12.1090552 L42.4466396,12.1090552 Z M33.9233083,24.1348285 L26.6410535,24.1348285 L30.2268098,12.1279815 L35.1185604,12.1279815 L33.9233083,24.1348285 Z M16.3038412,26.4779048 L23.876317,26.4779048 L23.876317,28.6279329 C23.920192,29.9972045 23.2082887,31.2814935 22.0187675,31.9789928 C20.8292462,32.676492 19.3509119,32.676492 18.1613907,31.9789928 C16.9718694,31.2814935 16.2599661,29.9972045 16.3038412,28.6279329 L16.3038412,26.4779048 Z M26.2324529,26.4779048 L33.8049287,26.4779048 L33.8049287,28.6279329 C33.8488037,29.9972045 33.1369005,31.2814935 31.9473792,31.9789928 C30.7578579,32.676492 29.2795237,32.676492 28.0900024,31.9789928 C26.9004811,31.2814935 26.1885779,29.9972045 26.2324529,28.6279329 L26.2324529,26.4779048 Z M36.1610646,26.4779048 L43.7335404,26.4779048 L43.7335404,28.6279329 C43.7774154,29.9972045 43.0655122,31.2814935 41.8759909,31.9789928 C40.6864697,32.676492 39.2081354,32.676492 38.0186141,31.9789928 C36.8290929,31.2814935 36.1171896,29.9972045 36.1610646,28.6279329 L36.1610646,26.4779048 Z M46.0896764,26.4779048 L53.6659709,26.4779048 L53.6659709,28.6279329 C53.6659709,30.7017504 51.9699596,32.3829116 49.8778236,32.3829116 C47.7856877,32.3829116 46.0896764,30.7017504 46.0896764,28.6279329 L46.0896764,26.4779048 Z M56.0182881,26.4779048 L63.5907639,26.4779048 L63.5907639,28.6279329 C63.6346389,29.9972045 62.9227357,31.2814935 61.7332144,31.9789928 C60.5436931,32.676492 59.0653589,32.676492 57.8758376,31.9789928 C56.6863163,31.2814935 55.9744131,29.9972045 56.0182881,28.6279329 L56.0182881,26.4779048 Z M73.5308317,28.6279329 C73.5308317,30.7017504 71.8348204,32.3829116 69.7426845,32.3829116 C67.6505485,32.3829116 65.9545372,30.7017504 65.9545372,28.6279329 L65.9545372,26.4779048 L73.5308317,26.4779048 L73.5308317,28.6279329 Z M72.4959649,24.1348285 L65.5459367,24.1348285 L59.5696761,12.1279815 L64.1292001,12.1279815 L72.4959649,24.1348285 Z M26.8587192,2.36200882 L53.0702542,2.36200882 L53.0702542,9.75083774 L26.8587192,9.75083774 L26.8587192,2.36200882 Z M15.7844984,12.1279815 L20.3440224,12.1279815 L14.3830367,24.1348285 L7.43682714,24.1348285 L15.7844984,12.1279815 Z M6.34467985,28.6279329 L6.34467985,26.4779048 L13.9286117,26.4779048 L13.9286117,28.6279329 C13.9724868,29.9972045 13.2605835,31.2814935 12.0710622,31.9789928 C10.881541,32.676492 9.4032067,32.676492 8.21368543,31.9789928 C7.02416416,31.2814935 6.31226092,29.9972045 6.35613594,28.6279329 L6.34467985,28.6279329 Z M27.0649288,60.6663796 L27.0649288,38.6740149 L38.8608833,38.6740149 L38.8608833,60.6474533 L27.0649288,60.6663796 Z M41.2246566,60.6663796 L41.2246566,38.6740149 L52.8296763,38.6740149 L52.8296763,60.6474533 L41.2246566,60.6663796 Z M65.6643163,60.6663796 L55.1934496,60.6663796 L55.1934496,37.500584 C55.1944645,37.1897194 55.070594,36.8912421 54.8491953,36.6710717 C54.6277965,36.4509012 54.3270845,36.3271516 54.0134723,36.3271532 L25.8811328,36.3271532 C25.2273403,36.3271532 24.6973368,36.8525161 24.6973368,37.500584 L24.6973368,60.6474533 L14.2264701,60.6474533 L14.2264701,33.1248227 C14.5511573,32.8397862 14.8443036,32.5212907 15.1009517,32.1747222 C16.2485898,33.7602334 18.096622,34.7004832 20.0652575,34.7004832 C22.033893,34.7004832 23.8819253,33.7602334 25.0295634,32.1747222 C26.1772015,33.7602334 28.0252337,34.7004832 29.9938693,34.7004832 C31.9625048,34.7004832 33.810537,33.7602334 34.9581751,32.1747222 C36.1058132,33.7602334 37.9538455,34.7004832 39.922481,34.7004832 C41.8911165,34.7004832 43.7391488,33.7602334 44.8867869,32.1747222 C46.034425,33.7602334 47.8824572,34.7004832 49.8510927,34.7004832 C51.8197283,34.7004832 53.6677605,33.7602334 54.8153986,32.1747222 C55.9630367,33.7602334 57.8110689,34.7004832 59.7797045,34.7004832 C61.74834,34.7004832 63.5963722,33.7602334 64.7440103,32.1747222 C65.0004596,32.5202895 65.2922284,32.8386787 65.6146732,33.1248227 L65.6643163,60.6663796 Z" id="Shape" fill="#101F57"></path>
                    </g>
                    <g id="Group-7" transform="translate(52.000000, 155.000000)" fill-rule="nonzero">
                        <rect id="Rectangle-path" fill="#B95900" transform="translate(19.500000, 11.000000) rotate(43.210000) translate(-19.500000, -11.000000) " x="15" y="10" width="9" height="2" rx="1"></rect>
                        <path d="M40.2479538,8 L0.39164178,8 C-0.364434231,7.11428571 0.094764476,6 0.752593322,6 L40.6089053,6 C41.3649813,6.87714286 40.9036468,8 40.2479538,8 Z" id="Shape" fill="#101F57"></path>
                        <path d="M22.1499886,5 L18.4420406,5 C17.5874744,4.11428571 18.1089046,3 18.8500114,3 L22.5579594,3 C23.4125256,3.87714286 22.8910954,5 22.1499886,5 Z" id="Shape" fill="#101F57"></path>
                        <path d="M124,130.028444 L77.821553,76 C77.821553,76 50.389316,87.3808868 57.0395553,100.847514 C63.6897945,114.314141 79.3483936,145 79.3483936,145 L124,130.028444 Z" id="Shape" fill="#B9F6FF"></path>
                        <rect id="Rectangle-path" fill="#B95900" transform="translate(12.000000, 23.000000) rotate(43.210000) translate(-12.000000, -23.000000) " x="8" y="22" width="8" height="2" rx="1"></rect>
                        <rect id="Rectangle-path" fill="#FFD62E" transform="translate(16.000000, 17.000000) rotate(43.210000) translate(-16.000000, -17.000000) " x="13" y="13" width="6" height="8"></rect>
                        <rect id="Rectangle-path" fill="#FFFFFF" transform="translate(24.000000, 25.000000) rotate(43.210000) translate(-24.000000, -25.000000) " x="17" y="22" width="14" height="6" rx="3"></rect>
                        <path d="M26.2695865,30.9913138 C25.8313153,30.99397 25.4093338,30.8179029 25.0933477,30.5005411 L16.840973,22.2225533 L17.1277591,21.9098486 L25.382212,30.1878364 C25.629857,30.435377 25.9623845,30.5684182 26.3049152,30.5570017 C26.6562754,30.5485746 26.9896396,30.3928884 27.2300126,30.1249672 C27.4703855,29.8570459 27.5975808,29.4993895 27.5829838,29.1324581 C27.5712762,28.7739549 27.4213772,28.4356212 27.1673518,28.1943441 L18.746646,20.1031104 L19.0271977,19.783891 L27.4541379,27.883811 C27.7883862,28.2042797 27.9847069,28.6521513 27.9986159,29.1259435 C28.0171288,29.6088121 27.8493003,30.0792236 27.5328026,30.4315858 C27.2163048,30.783948 26.7776514,30.9887426 26.315306,31 L26.2695865,30.9913138 Z M12.5537281,30.7111825 C12.3112482,30.7160267 12.0762191,30.6235411 11.8970295,30.4527668 L3.29552376,22.0075688 C3.07383873,21.7817185 2.96748309,21.4595861 3.00873763,21.1389447 C3.09287382,20.4438686 3.59667126,19.8849649 4.25563384,19.7556607 C4.55386051,19.696758 4.86130553,19.7867116 5.08689799,19.9988755 L13.6904819,28.4462451 C13.9122758,28.6719352 14.0179962,28.9944805 13.9751898,29.3148692 C13.9393497,29.6545113 13.7968471,29.97218 13.5699486,30.2182383 C13.3093322,30.516883 12.9444438,30.6930426 12.5578845,30.7068394 L12.5537281,30.7111825 Z M4.4364338,20.1812866 C4.39674683,20.1818544 4.35715415,20.1854836 4.31797865,20.1921444 C4.08659738,20.2355981 3.87544965,20.3577503 3.71739031,20.539594 C3.55343343,20.7171428 3.44976362,20.9460071 3.42229154,21.1910621 C3.3968081,21.3755499 3.45522521,21.5618904 3.58023173,21.6948641 L12.1817374,30.1400621 C12.4394293,30.3941347 12.9381878,30.2942429 13.2727716,29.9229061 C13.4379016,29.7462074 13.5417711,29.5169022 13.5678704,29.271438 C13.5935677,29.0873276 13.5359811,28.9011871 13.4120084,28.767636 L4.8084245,20.322438 C4.70768678,20.2278129 4.57599178,20.1772767 4.44059012,20.1812866 L4.4364338,20.1812866 Z M12.9568913,26.1291902 C12.6856672,26.1302226 12.4244676,26.0221357 12.227457,25.8273434 L7.69498923,21.3691301 C7.26535194,20.9466093 7.24397245,20.2404597 7.64719155,19.7904057 C8.05254685,19.3437991 8.72645343,19.3215206 9.15801412,19.7404598 L13.6987945,24.1921584 C14.013153,24.5013856 14.1184625,24.9779497 13.9656753,25.3998924 C13.8128881,25.8218352 13.4320489,26.1061839 13.0005326,26.120504 L12.9568913,26.1291902 Z M8.42857984,19.8750966 C8.16079623,19.8749514 7.92010915,20.045775 7.82152702,20.3059421 C7.72294489,20.5661093 7.78648089,20.8628033 7.98177536,21.0542538 L12.5225557,25.5124671 C12.7857747,25.769247 13.1980443,25.7556633 13.4452589,25.4820653 C13.5637098,25.3501932 13.626593,25.1741859 13.6198244,24.9934642 C13.6151679,24.8120437 13.5401581,24.6403891 13.4120084,24.5178925 L8.87330616,20.0661939 C8.7539837,19.9452855 8.59478241,19.8768773 8.42857984,19.8750966 Z M14.5674655,23.2735884 L14.2640541,22.9760847 L19.5945354,17.047725 L19.8958687,17.3452288 L14.5674655,23.2735884 Z M10.2989242,19.0781339 L9.99759091,18.7806302 L15.3259941,12.8544421 L15.6294055,13.1519459 L10.2989242,19.0781339 Z M21.4648798,16.6894176 C21.1931387,16.6898982 20.9314786,16.5819283 20.7333673,16.3875707 L16.1925869,11.9293574 C15.7637915,11.5069816 15.7433339,10.8015361 16.1468674,10.3528046 C16.339522,10.1358027 16.6076819,10.0090029 16.8908488,10.0010119 C17.1745305,9.98821281 17.4508671,10.0972811 17.6556118,10.3028587 L22.1963922,14.7589005 C22.5163117,15.0722723 22.6204512,15.5581201 22.4590197,15.9841503 C22.2975882,16.4101804 21.9033823,16.6898398 21.4648798,16.6894176 Z M16.9261775,10.4353239 L16.9033178,10.4353239 C16.7301334,10.4421205 16.5665412,10.5201773 16.4482007,10.65248 C16.2044982,10.9291481 16.2174313,11.3587107 16.4772949,11.6188243 L21.0180753,16.074866 C21.2809069,16.3327198 21.6940152,16.3191084 21.9407785,16.0444642 C22.1875418,15.76982 22.1745158,15.3381451 21.9116842,15.0802914 L17.3646694,10.6155634 C17.2447218,10.4964617 17.0854068,10.4303384 16.9199431,10.4309808 L16.9261775,10.4353239 Z" id="Shape" fill="#101F57"></path>
                        <polygon id="Shape" fill="#FFFFFF" points="29.5232168 24 26 25.0768209 29.2645722 41.1786584 37 43"></polygon>
                        <polyline id="Shape" fill="#FFFFFF" points="75 37.5219699 71.7280379 28.7239752 68.9821147 25 67 25.8711295 71.6291426 39"></polyline>
                        <path d="M3.61714435,61 C0.952892131,61 0.0833246483,58.6287067 0,57.4061443 L0,4.08678936 C0,0.853405005 2.79885357,0 4.27305888,0 L36.7269411,0 C38.207556,0 41,0.853405005 41,4.08678936 L41,47.4714677 C40.3355393,48.2380122 39.4937467,47.7711367 39.4937467,47.1023103 L39.4937467,4.08678936 C39.4937467,1.62429248 37.0025534,1.53308889 36.7162585,1.53091738 L4.27946847,1.53091738 C3.99744659,1.53091738 1.5019802,1.62429248 1.5019802,4.08678936 L1.5019802,57.3388274 C1.53402814,57.6471824 1.79895779,59.4712541 3.61500782,59.4712541 L24.4867639,59.4712541 C25.1426785,59.4712541 25.6041688,60.3268307 24.8478374,60.9913139 L3.61714435,61 Z" id="Shape" fill="#101F57"></path>
                        <path d="M22.2553185,54 L0.387246246,54 C-0.360344057,53.1177305 0.0937009008,52 0.744146701,52 L22.6143308,52 C23.3598093,52.8822695 22.9057643,54 22.2553185,54 Z" id="Shape" fill="#101F57"></path>
                        <path d="M21.2799652,57.5913471 C19.2575351,58.9235058 17.0751512,56.7434105 18.4095606,54.7188798 C18.4909334,54.5944053 18.5967978,54.4878002 18.7207037,54.4055595 C20.7431338,53.0799739 22.9211354,55.2578782 21.5932994,57.2802179 C21.5110551,57.4041183 21.4044452,57.5099779 21.2799652,57.5913471 Z M20.0003344,55.5427148 C19.8149141,55.5418277 19.6472576,55.6528344 19.5756847,55.8238788 C19.5041119,55.9949232 19.5427494,56.1922452 19.6735481,56.3236668 C19.8043468,56.4550884 20.00149,56.4946702 20.1728833,56.4239217 C20.3442767,56.3531732 20.4560912,56.1860585 20.4560933,56.0006444 C20.4549067,55.7490827 20.2518988,55.5451079 20.0003344,55.5427148 Z" id="Shape" fill="#101F57"></path>
                        <path d="M54.2028066,93 C54.2028066,93 50.9336794,90.9022034 49.3033449,89.850104 C48.8465975,89.5556015 48.2333718,89.1714679 47.5503652,88.7467868 C46.0088428,87.7843185 44.088812,86.587102 42.8475586,85.6950582 C41.0290273,84.3868697 39.1301423,82.8140558 37.4554018,81.4269065 C36.2733564,80.4473656 35.1589773,79.5233108 34.2835448,78.8788198 C32.5199923,77.5663632 30.7035755,76.1258619 29.5786236,74.2244003 C28.8342945,72.9674296 28.4727028,71.6400344 28.1237985,70.3553207 C27.7600923,69.0193892 27.4175317,67.7581504 26.6753172,66.6932465 C25.6032295,65.16098 24.4592464,62.7900217 23.8481353,61.2342804 C23.5267205,60.4126612 23.5943868,59.6273212 23.6514802,58.9337466 C23.7212611,58.1356022 23.7783545,57.4398935 23.3385236,56.6481513 C22.4630911,55.0561307 22,53.4811827 22,52.0940334 C22,51.4324698 22,49.4200363 23.7741253,48.5984171 C25.9542484,47.5911332 28.2147251,49.9663597 29.7372165,51.8400783 C30.8621684,53.2293617 31.1434064,54.9046113 31.3675509,56.246945 C31.5367166,57.2670333 31.6847366,58.1462726 32.1097655,58.4749203 C32.8731257,59.0617911 33.5688197,60.0456001 34.1714725,60.9867276 C33.6914648,57.4847091 32.5665129,51.2766823 31.9025375,49.7934995 C30.7860438,47.2923626 29.8535179,44.7336056 28.7729719,41.7715083 L28.4600154,40.9178779 C27.8867745,39.2742137 27.4115555,37.597387 27.0369089,35.8963974 C26.6520569,34.2979745 26.2566321,32.6440657 25.5905421,30.5889506 C24.4846213,27.1744292 24.6347559,24.9421858 26.0494041,23.7599078 C27.3355079,22.7215472 29.1707818,22.7501941 30.4244521,23.8281982 C32.1837755,25.3071128 33.2537486,29.671298 33.4377163,30.4715764 L36.5672818,37.3433008 C36.8168012,37.7317026 38.3414072,40.1474765 39.1195694,42.6571498 C39.3817762,43.5107801 39.7920031,44.7912257 40.2064591,46.0908779 C40.4665513,44.6439744 41.0628604,43.3400541 42.3210304,42.9409819 C43.9936563,42.4074629 45.8798539,42.2516754 47.171857,45.1305437 C47.7752672,46.4566616 48.2538548,47.8370756 48.6013072,49.2535783 C48.6906474,49.6590228 48.4373982,50.060793 48.0356594,50.1509573 C47.6339205,50.2411215 47.2358223,49.9855364 47.1464821,49.580092 C46.8189102,48.2614809 46.373008,46.9757234 45.8143022,45.7387554 C45.0255671,43.984545 44.2389466,43.8970479 42.7693195,44.3644105 C41.2447136,44.8509798 41.435025,49.3368073 41.7374087,51.0120569 C41.2785467,51.8187376 40.4306036,51.6181344 40.2402922,51.0269954 C40.2212611,50.9715094 38.4196463,45.390901 37.7028066,43.0946353 C36.9352172,40.6233755 35.313341,38.1393111 35.2964245,38.1137022 C35.2749116,38.0810276 35.2558282,38.0467886 35.239331,38.0112666 L32.0230681,30.9453413 C31.7587466,29.7225158 30.7247213,26.0220282 29.4855825,24.9699288 C28.7792541,24.361903 27.7478097,24.3352117 27.011534,24.9059065 C25.9204152,25.8150229 26.4131103,28.2350649 27.011534,30.1045154 C27.6945406,32.2151165 28.1153403,33.973595 28.4917339,35.5250682 C28.8529373,37.1695568 29.3112066,38.7907882 29.8640907,40.3800908 L30.1791619,41.2443915 C31.2364475,44.1787459 32.171088,46.714028 33.266436,49.1660812 C33.9388697,50.6599344 34.8227605,55.628063 35.0786236,57.1112458 C36.231065,63.8122441 35.9582853,63.9402886 35.4148404,64.204914 C34.6472511,64.5719751 34.2074202,63.8613278 33.4102268,62.5702119 C32.8054594,61.5928051 31.9786621,60.2526055 31.2110727,59.6593324 C30.3187236,58.9721599 30.1178393,57.7664071 29.9042676,56.4902297 C29.6928105,55.2588679 29.4665513,53.8653163 28.5911188,52.7833399 C26.7556709,50.5148172 25.305075,49.5395445 24.4000384,49.9578234 C23.9771242,50.1520243 23.4950019,50.5703032 23.4950019,52.0918993 C23.4950019,53.2229595 23.8946559,54.5460866 24.6474433,55.9161633 C25.3093041,57.117648 25.216263,58.1953563 25.142253,59.0617911 C25.0915033,59.6657346 25.0470973,60.1864491 25.2395233,60.6794207 C25.8358324,62.2010168 26.9417532,64.456735 27.8975394,65.8246776 C28.7920031,67.1051232 29.1853133,68.5541607 29.5680507,69.9562485 C29.9042676,71.1961466 30.2235679,72.3698884 30.864283,73.4518649 C31.8475586,75.1121759 33.532872,76.4395711 35.1737793,77.6666647 C36.0703576,78.3346305 37.2016532,79.2714898 38.3985006,80.261701 C40.0563245,81.6339118 41.9340638,83.1896531 43.7103037,84.4679646 C44.9113802,85.3322653 46.8081507,86.5145434 48.3327566,87.4663412 C49.0221069,87.8931564 49.6437908,88.2836923 50.1047674,88.5803288 C51.7329873,89.6345623 55,91.7302248 55,91.7302248 L54.2028066,93 Z" id="Shape" fill="#101F57"></path>
                        <path d="M56.2336405,49.9999983 C55.9201932,50.0006397 55.6377408,49.8226944 55.5198637,49.5503181 C55.1804912,48.7741578 54.1864585,46.6099437 53.6763051,45.9323435 L53.5777776,45.8029834 C52.9756653,44.9980765 52.5071124,44.3656496 50.8168188,44.4518896 C48.9623127,44.552503 48.5594448,46.3553303 48.5550658,46.3738103 C48.4280749,46.9898105 47.5194326,47.2608506 47.0005212,46.476477 C46.9742472,45.7064767 47.937627,43.1623958 50.7226703,43.0104491 C53.2624897,42.874929 54.1733215,44.0863961 54.8389293,44.9754898 L54.9308883,45.0986898 C55.6337176,46.0350102 56.8094788,48.7022911 56.9430383,49.0000246 C57.0398228,49.2231728 57.0120644,49.4768345 56.8689677,49.6768958 C56.725871,49.8769571 56.4861371,49.9972723 56.2292615,49.9979449 L56.2336405,49.9999983 Z" id="Shape" fill="#101F57"></path>
                        <path d="M70.2810799,78 C70.0429303,77.9999916 69.8197631,77.8798143 69.6831971,77.6780352 C69.6687655,77.6545808 69.2935425,77.0895432 67.8730556,74.4797092 C67.0607597,72.9978182 67.0380814,72.6673246 67.0483897,71.3496143 C67.0628214,70.2344646 67.0875613,68.3645101 66.5700835,63.9785391 C65.5969778,55.7524448 63.7744663,52.7097707 62.7951756,51.0764922 C62.681784,50.8888571 62.5787008,50.7161475 62.4879875,50.5562312 C61.3623187,48.5754014 60.5727011,47.9975705 59.6552603,47.3045999 C58.6904013,46.5860426 57.960572,46.5583238 56.8534581,46.5178117 L56.4638035,46.5028862 C55.5926971,46.5596631 54.7258262,46.6721752 53.8681677,46.8397765 C53.610224,46.8931805 53.3445331,46.7980373 53.1737472,46.5911064 C53.0029614,46.3841754 52.9538253,46.0978616 53.0453231,45.8427851 C53.1368209,45.5877085 53.3546244,45.4038136 53.614583,45.3621499 C53.8331194,45.3216378 55.7752075,44.9719541 56.5256534,45.0018052 L56.9049997,45.0167307 C58.0760252,45.059375 59.1728308,45.0998872 60.5046662,46.0828393 C61.4654019,46.7992644 62.4591242,47.5391438 63.7414796,49.7950297 C63.8260079,49.9442849 63.9229061,50.1063334 64.028051,50.2811752 C65.0588833,52.0146679 67.0009714,55.2385804 68.0111871,63.7951684 C68.5430966,68.2728247 68.5162949,70.2899023 68.5018633,71.3688042 C68.48537,72.4903505 68.48537,72.5585815 69.130671,73.7376976 C70.4934313,76.2323919 70.858346,76.7889006 70.8727776,76.8102228 C71.0992203,77.1524691 71.0153256,77.6196692 70.6851661,77.8550092 C70.5677952,77.9445838 70.426872,77.9951487 70.2810799,78 Z" id="Shape" fill="#101F57"></path>
                        <path d="M118.188987,127.999998 C117.955215,128.000531 117.734443,127.891627 117.591399,127.705217 C114.153131,123.19958 110.945361,119.780546 107.842169,116.475551 C104.692024,113.116765 101.714753,109.945175 98.6414409,105.833297 C96.3257855,102.737016 87.2125612,91.0533445 83.336773,86.7930001 C82.743453,86.1474934 82.0434208,85.1899918 81.2345421,84.0926303 C79.2987822,81.4654179 76.6459162,77.8656421 74.6482633,77.5601022 C71.6133675,77.0867306 66.382334,81.6246429 62.9205893,84.6240975 C62.5577677,84.9403958 62.2056174,85.243784 61.870541,85.5321103 C58.5688646,88.3615815 54.9129036,92.1270374 54.5564848,94.2098725 C54.2640933,95.9161619 55.2992019,97.9279912 56.3940694,100.058163 C56.7760992,100.802648 57.1709344,101.564346 57.516682,102.345409 C60.2912,108.516453 70.0575032,126.489512 70.1578127,126.659496 C70.3576042,127.026694 70.2243072,127.487654 69.8600856,127.689079 C69.495864,127.890503 69.038641,127.756117 68.8388495,127.388918 C68.7406743,127.208176 58.9380889,109.181325 56.146497,102.95864 C55.8156891,102.220611 55.4315251,101.471823 55.0580323,100.746704 C53.8436471,98.3798459 52.6954235,96.150696 53.0731848,93.9409113 C53.5939405,90.9027263 58.7182617,86.233561 60.8951912,84.3658948 C61.2302676,84.0797202 61.5781495,83.776332 61.940971,83.4643371 C66.0493919,79.9054433 71.1587734,75.4815705 74.8766275,76.0496165 C77.4846744,76.4519823 80.2335814,80.1808595 82.4403903,83.1760108 C83.2257923,84.2518553 83.9044821,85.1620198 84.4444459,85.7580377 C88.3522478,90.0614159 97.516694,101.79888 99.8430206,104.908071 C102.865111,108.951094 105.818905,112.094712 108.934903,115.421224 C112.136269,118.823044 115.431543,122.343207 119,127.040345 C118.961584,127.707368 118.571017,127.999998 118.188987,127.999998 Z" id="Shape" fill="#101F57"></path>
                        <path d="M35.3163852,63 L33.3555076,63 C32.6682297,62.1142857 33.0875857,61 33.6836148,61 L35.6444924,61 C36.3317703,61.8742857 35.9124143,63 35.3163852,63 Z" id="Shape" fill="#101F57"></path>
                        <path d="M34.1594615,54 L29.4346856,54 C28.594461,53.1114286 29.1062125,52 29.8393264,52 L34.571243,52 C35.4043269,52.8742857 34.8901951,54 34.1594615,54 Z" id="Shape" fill="#101F57"></path>
                    </g>
                    <g id="Group-10" transform="translate(81.000000, 300.000000)" fill-rule="nonzero">
                        <circle id="Oval" fill="#73FFAA" cx="31" cy="111" r="21"></circle>
                        <path d="M108.994545,23.9999811 C107.340704,23.9999811 106,22.7297253 106,21.1627852 C106,19.6124049 112,19.6124049 112,21.1627852 C112.000005,21.9170506 111.683012,22.6402733 111.119065,23.1726488 C110.555117,23.7050244 109.790637,24.0027289 108.994545,23.9999811 Z" id="Shape" fill="#FFDEA2"></path>
                        <path d="M101.994545,24.9999811 C100.340704,24.9999811 99,23.7297253 99,22.1627852 C99,20.6124049 105,20.6124049 105,22.1627852 C105.000005,22.9170506 104.683012,23.6402733 104.119065,24.1726488 C103.555117,24.7050244 102.790637,25.0027289 101.994545,24.9999811 Z" id="Shape" fill="#2EFFF6"></path>
                        <path d="M116.994545,24.9999811 C115.340704,24.9999811 114,23.7297253 114,22.1627852 C114,20.6124049 120,20.6124049 120,22.1627852 C120.000005,22.9170506 119.683012,23.6402733 119.119065,24.1726488 C118.555117,24.7050244 117.790637,25.0027289 116.994545,24.9999811 Z" id="Shape" fill="#EBFFA2"></path>
                        <path d="M123.994545,24.9999811 C122.340704,24.9999811 121,23.7297253 121,22.1627852 C121,20.6124049 127,20.6124049 127,22.1627852 C127.000005,22.9170506 126.683012,23.6402733 126.119065,24.1726488 C125.555117,24.7050244 124.790637,25.0027289 123.994545,24.9999811 Z" id="Shape" fill="#FF5CFE"></path>
                        <path d="M131.994545,24.9999811 C130.340704,24.9999811 129,23.7297253 129,22.1627852 C129,20.6124049 135,20.6124049 135,22.1627852 C135.000005,22.9170506 134.683012,23.6402733 134.119065,24.1726488 C133.555117,24.7050244 132.790637,25.0027289 131.994545,24.9999811 Z" id="Shape" fill="#8BCEFF"></path>
                        <path d="M138.994545,24.9999811 C137.340704,24.9999811 136,23.7297253 136,22.1627852 C136,20.6124049 142,20.6124049 142,22.1627852 C142.000005,22.9170506 141.683012,23.6402733 141.119065,24.1726488 C140.555117,24.7050244 139.790637,25.0027289 138.994545,24.9999811 Z" id="Shape" fill="#2EFFF6"></path>
                        <path d="M146.994545,24.9999811 C145.340704,24.9999811 144,23.7297253 144,22.1627852 C144,20.6124049 150,20.6124049 150,22.1627852 C150.000005,22.9170506 149.683012,23.6402733 149.119065,24.1726488 C148.555117,24.7050244 147.790637,25.0027289 146.994545,24.9999811 Z" id="Shape" fill="#A2FFCE"></path>
                        <polygon id="Shape" fill="#FFBC00" points="103.104469 8 95 18.8851318 153 19 144.829908 8"></polygon>
                        <path d="M146.387222,26.447522 C148.935672,26.4444904 151.000002,24.3644783 151,21.7997024 L151,19.2670253 C150.999577,19.1633451 150.979185,19.0607307 150.939952,18.9648621 C150.931322,18.9400586 150.920355,18.9161428 150.907199,18.8934417 C150.891532,18.8528458 150.87139,18.8141468 150.847151,18.7780703 L143.341151,7.84525581 C143.177089,7.60427068 142.905381,7.46035011 142.615117,7.46068445 L135.600419,7.46068445 L135.600419,0.890008012 C135.600419,0.39847016 135.204485,0 134.716076,0 L113.268025,0 C112.779616,0 112.383682,0.39847016 112.383682,0.890008012 L112.383682,7.44420282 L105.39082,7.44420282 C105.099319,7.44489656 104.826406,7.58837645 104.659326,7.82877418 L97.1533272,18.7615886 C97.1329224,18.7989474 97.1146952,18.8374697 97.0987381,18.8769601 C97.0855822,18.8996612 97.0746144,18.9235769 97.0659847,18.9483805 C97.0275171,19.0447074 97.0053743,19.1468452 97.0004778,19.2505437 L97.0004778,21.7997024 C96.9793522,23.2691457 97.6598711,24.6596128 98.8302665,25.5384099 C100.000662,26.4172071 101.518881,26.6776731 102.912476,26.2387547 L102.912476,46.2144901 L97.8848209,46.2144901 C97.4218302,46.2510708 97.0646601,46.6398548 97.0646601,47.107245 C97.0646601,47.5746353 97.4218302,47.9634193 97.8848209,48 L150.09928,48 C150.562271,47.9634193 150.919441,47.5746353 150.919441,47.107245 C150.919441,46.6398548 150.562271,46.2510708 150.09928,46.2144901 L145.066167,46.2144901 L145.066167,26.2387547 C145.494262,26.3718734 145.93919,26.4421856 146.387222,26.447522 Z M113.284402,9.22971272 L114.856567,9.22971272 L112.159866,18.3770173 L106.79376,18.3770173 L111.280982,9.22971272 L113.284402,9.22971272 Z M136.757708,9.22971272 L141.244931,18.3770173 L135.873365,18.3770173 L133.182123,9.22971272 L136.757708,9.22971272 Z M131.331553,9.22971272 L134.022795,18.3770173 L128.563886,18.3770173 L127.668625,9.22971272 L131.331553,9.22971272 Z M125.872644,9.22971272 L126.767905,18.3770173 L121.270785,18.3770173 L122.166046,9.22971272 L125.872644,9.22971272 Z M119.485722,18.3770173 L114.026813,18.3770173 L116.718055,9.22971272 L120.386442,9.22971272 L119.485722,18.3770173 Z M106.258786,20.1625272 L111.94151,20.1625272 L111.94151,21.8106902 C111.987318,22.8622137 111.455999,23.854205 110.558013,24.3937278 C109.660028,24.9332506 108.540269,24.9332506 107.642283,24.3937278 C106.744298,23.854205 106.212979,22.8622137 106.258786,21.8106902 L106.258786,20.1625272 Z M113.715655,20.1625272 L119.403838,20.1625272 L119.403838,21.8106902 C119.403838,23.3915002 118.130495,24.6729999 116.559747,24.6729999 C114.988998,24.6729999 113.715655,23.3915002 113.715655,21.8106902 L113.715655,20.1625272 Z M121.177983,20.1625272 L126.866166,20.1625272 L126.866166,21.8106902 C126.911974,22.8622137 126.380655,23.854205 125.482669,24.3937278 C124.584683,24.9332506 123.464925,24.9332506 122.566939,24.3937278 C121.668953,23.854205 121.137634,22.8622137 121.183442,21.8106902 L121.177983,20.1625272 Z M128.634852,20.1625272 L134.317576,20.1625272 L134.317576,21.8106902 C134.363384,22.8622137 133.832065,23.854205 132.934079,24.3937278 C132.036093,24.9332506 130.916335,24.9332506 130.018349,24.3937278 C129.120363,23.854205 128.589044,22.8622137 128.634852,21.8106902 L128.634852,20.1625272 Z M136.09718,20.1625272 L141.779904,20.1625272 L141.779904,21.8106902 C141.825711,22.8622137 141.294393,23.854205 140.396407,24.3937278 C139.498421,24.9332506 138.378662,24.9332506 137.480677,24.3937278 C136.582691,23.854205 136.051372,22.8622137 136.09718,21.8106902 L136.09718,20.1625272 Z M149.236773,21.8106902 C149.28258,22.8622137 148.751262,23.854205 147.853276,24.3937278 C146.95529,24.9332506 145.835531,24.9332506 144.937546,24.3937278 C144.03956,23.854205 143.508241,22.8622137 143.554049,21.8106902 L143.554049,20.1625272 L149.24769,20.1625272 L149.236773,21.8106902 Z M148.434313,18.388005 L143.215597,18.388005 L138.733833,9.24070047 L142.151109,9.24070047 L148.434313,18.388005 Z M114.185122,1.79649765 L133.837192,1.79649765 L133.837192,7.45519057 L114.185122,7.45519057 L114.185122,1.79649765 Z M105.882122,9.24070047 L109.304857,9.24070047 L104.823094,18.388005 L99.5716236,18.388005 L105.882122,9.24070047 Z M98.7855408,21.8106902 L98.7855408,20.1625272 L104.484641,20.1625272 L104.484641,21.8106902 C104.530449,22.8622137 103.99913,23.854205 103.101144,24.3937278 C102.203159,24.9332506 101.0834,24.9332506 100.185414,24.3937278 C99.2874286,23.854205 98.7561097,22.8622137 98.8019176,21.8106902 L98.7855408,21.8106902 Z M114.332512,46.2254779 L114.332512,29.4801419 L123.186862,29.4801419 L123.186862,46.2254779 L114.332512,46.2254779 Z M124.961007,46.2254779 L124.961007,29.4801419 L133.69526,29.4801419 L133.69526,46.2254779 L124.961007,46.2254779 Z M143.302939,46.2254779 L135.44757,46.2254779 L135.44757,28.58464 C135.447574,28.3476403 135.353654,28.1204267 135.186625,27.953359 C135.019596,27.7862913 134.793255,27.6931691 134.557768,27.694632 L113.448169,27.694632 C113.212682,27.6931691 112.986341,27.7862913 112.819312,27.953359 C112.652283,28.1204267 112.558362,28.3476403 112.558367,28.58464 L112.558367,46.2254779 L104.702998,46.2254779 L104.702998,25.2498569 C105.247432,24.3419491 106.325272,23.90904 107.341238,24.1902204 C108.357204,24.4714008 109.063532,25.3980987 109.070124,26.4585098 C109.929697,25.2459405 111.318514,24.5261483 112.798559,24.5261483 C114.278603,24.5261483 115.667421,25.2459405 116.526993,26.4585098 C117.386566,25.2459405 118.775383,24.5261483 120.255428,24.5261483 C121.735472,24.5261483 123.12429,25.2459405 123.983862,26.4585098 C124.84463,25.2459055 126.234259,24.526262 127.715026,24.526262 C129.195793,24.526262 130.585422,25.2459055 131.44619,26.4585098 C132.305762,25.2459405 133.69458,24.5261483 135.174624,24.5261483 C136.654669,24.5261483 138.043487,25.2459405 138.903059,26.4585098 C138.909651,25.3980987 139.615979,24.4714008 140.631945,24.1902204 C141.647911,23.90904 142.725751,24.3419491 143.270186,25.2498569 L143.302939,46.2254779 Z" id="Shape" fill="#101F57"></path>
                        <polygon id="Shape" fill="#FFFFFF" points="115.192319 44 49 66.682571 175 85"></polygon>
                        <polyline id="Shape" fill="#FFFFFF" points="56.0064681 73 184 89.3867169 173.251745 144 35 132.492689 35 127.749885"></polyline>
                        <circle id="Oval" fill="#FFFFFF" cx="30" cy="105" r="30"></circle>
                        <circle id="Oval" fill="#A2FFC1" cx="31.5" cy="109.5" r="16.5"></circle>
                        <circle id="Oval" fill="#FFE073" cx="31.5" cy="109.5" r="14.5"></circle>
                        <path d="M30.5057262,123.999999 C24.6401061,124.00223 19.350916,120.470288 17.1052098,115.051588 C14.8595037,109.632888 16.0996934,103.394933 20.2473134,99.2473134 C24.3949334,95.0996934 30.632888,93.8595037 36.0515877,96.1052098 C41.4702875,98.350916 45.0022296,103.640106 44.9999989,109.505726 C44.9908808,117.506912 38.5069121,123.990881 30.5057262,123.999999 Z M30.5057262,96.6605355 C25.3098302,96.6583045 20.6243151,99.7865199 18.6343858,104.586262 C16.6444564,109.386003 17.7420746,114.911853 21.4153392,118.586696 C25.0886038,122.261538 30.6139819,123.36153 35.4145778,121.373662 C40.2151738,119.385794 43.3454011,114.701623 43.3454016,109.505726 C43.345412,102.410992 37.6004502,96.6561588 30.5057262,96.6439895 L30.5057262,96.6605355 Z" id="Shape" fill="#101F57"></path>
                        <path d="M47.1402261,98 L46.0654515,96.8673379 L48.4590315,94.581135 C48.4436519,94.5358803 48.4208366,94.4935367 48.3915336,94.4558636 L45.7227698,91.6320377 C45.6875268,91.591382 45.6362167,91.5684568 45.5825818,91.569402 L43.0695824,93.9756566 L42,92.8429945 L44.5285759,90.4263006 C44.860615,90.103064 45.3219331,89.9510428 45.7798834,90.013949 C46.185481,90.0592132 46.5631925,90.2435392 46.8494658,90.5359131 L49.5234218,93.3649586 C50.1588594,94.0115116 50.1588594,95.0515852 49.5234218,95.6981382 L47.1402261,98 Z" id="Shape" fill="#101F57"></path>
                        <path d="M34.9070539,89 L33.2887967,89 L33.2887967,86.4399763 L35.1497925,86.4399763 C35.2766946,86.4371616 35.3788899,86.3363284 35.3817427,86.2111177 L35.3817427,81.825547 C35.3788899,81.7003363 35.2766946,81.5995031 35.1497925,81.5966884 L25.8556017,81.5966884 C25.726598,81.5966555 25.6211892,81.6982956 25.6182573,81.825547 L25.6182573,86.2111177 C25.6211892,86.3383691 25.726598,86.4400092 25.8556017,86.4399763 L27.7112033,86.4399763 L27.7112033,88.909521 L26.0929461,88.909521 L26.0929461,88.0366647 L25.8556017,88.0366647 C24.832884,88.036669 24.002973,87.2201998 24,86.2111177 L24,81.825547 C24.002973,80.8164649 24.832884,79.9999957 25.8556017,80 L35.1497925,80 C36.1704042,80.0029231 36.9970374,80.8185385 37,81.825547 L37,86.2111177 C36.9970374,87.2181262 36.1704042,88.0337416 35.1497925,88.0366647 L34.9070539,88.0366647 L34.9070539,89 Z" id="Shape" fill="#101F57"></path>
                        <path d="M30,129 C19.5065898,129 11,120.49341 11,110 C11,99.5065898 19.5065898,91 30,91 C40.4934102,91 49,99.5065898 49,110 C48.9878782,120.488385 40.4883851,128.987878 30,129 Z M30,92.6497829 C20.4177397,92.6497829 12.6497829,100.41774 12.6497829,110 C12.6497829,119.58226 20.4177397,127.350217 30,127.350217 C39.5822603,127.350217 47.3502171,119.58226 47.3502171,110 C47.3411221,100.421509 39.5784905,92.6588779 30,92.6497829 Z" id="Shape" fill="#101F57"></path>
                        <rect id="Rectangle-path" fill="#101F57" transform="translate(32.500000, 107.000000) rotate(-45.000000) translate(-32.500000, -107.000000) " x="29" y="106" width="7" height="2"></rect>
                        <rect id="Rectangle-path" fill="#101F57" transform="translate(25.000000, 107.500000) rotate(-67.500000) translate(-25.000000, -107.500000) " x="24" y="102" width="2" height="11"></rect>
                        <rect id="Rectangle-path" fill="#101F57" transform="translate(37.000000, 116.500000) rotate(-45.000000) translate(-37.000000, -116.500000) " x="36" y="116" width="2" height="1"></rect>
                        <rect id="Rectangle-path" fill="#101F57" transform="translate(37.500000, 103.000000) rotate(-45.000000) translate(-37.500000, -103.000000) " x="37" y="102" width="1" height="2"></rect>
                        <rect id="Rectangle-path" fill="#101F57" x="29" y="97" width="2" height="4"></rect>
                        <rect id="Rectangle-path" fill="#101F57" x="38" y="109" width="4" height="2"></rect>
                        <rect id="Rectangle-path" fill="#FF8BC9" transform="translate(107.000000, 101.500000) rotate(-82.660000) translate(-107.000000, -101.500000) " x="85" y="41" width="44" height="121"></rect>
                        <path d="M172.077926,82.7994173 L171.022741,82.6631418 L116.261351,39.480152 C115.617682,38.973132 114.751426,38.8583123 113.999467,39.1803458 L49.7955255,66.9260436 L48.7403406,66.7897681 C48.1521805,66.7110872 47.5571942,66.8724141 47.0877061,67.2378697 C46.6182181,67.6033253 46.3131555,68.1426084 46.2403641,68.7357827 L40.0120677,117.462461 C39.9959774,117.611015 39.9959774,117.760891 40.0120677,117.909445 C40.0120677,118.013014 40.0445349,118.105682 40.0607685,118.2038 C40.0770021,118.301918 40.0607685,118.296467 40.0607685,118.345527 C40.0905937,118.448374 40.128595,118.548633 40.1744038,118.645333 C40.1744038,118.68349 40.2014598,118.721647 40.2176934,118.754353 C40.3513982,119.018534 40.5352417,119.253734 40.7588139,119.446633 L40.8616268,119.522947 C40.9414192,119.587251 41.0245051,119.647295 41.1105422,119.702831 L41.2728783,119.779145 C41.3540464,119.811851 41.424392,119.855459 41.5055601,119.882714 C41.6463595,119.930682 41.7912823,119.965355 41.9384565,119.986284 L165.276042,135.995933 C165.371564,136.001356 165.467313,136.001356 165.562836,135.995933 C165.682598,135.99131 165.801915,135.978562 165.919975,135.957776 L166.066078,135.92507 L166.293348,135.859658 L166.439451,135.794245 C166.508723,135.767069 166.575682,135.734255 166.639665,135.696127 L166.774945,135.608911 C166.818416,135.584851 166.86002,135.557519 166.899403,135.527145 L166.948104,135.483537 C167.011533,135.429593 167.071198,135.371311 167.126674,135.309104 C167.16902,135.271908 167.208795,135.23184 167.24572,135.189182 C167.304128,135.117298 167.356611,135.040729 167.402645,134.960239 L167.483813,134.845768 C167.532586,134.750198 167.575945,134.651922 167.613682,134.551412 L167.651561,134.453294 C167.701076,134.317963 167.733791,134.176984 167.748962,134.033565 L173.98267,85.3014361 C174.133352,84.0831715 173.284989,82.9687865 172.077926,82.7994173 Z M114.545999,43.8464199 L162.343169,81.5347804 L120.135773,76.0565041 L58.5021536,68.059856 L114.545999,43.8464199 Z M163.625624,131.242643 L44.7198156,115.805351 L50.3853468,71.5430586 L127.04047,81.4911723 L169.291156,86.9748996 L163.625624,131.242643 Z" id="Shape" fill="#101F57"></path>
                        <path d="M80.1412541,89.1021087 C79.4080332,88.2750932 78.5284101,87.6055043 77.5513784,87.1306371 C75.3735145,86.0948913 72.9513975,85.7605131 70.5920806,86.1698918 C69.6009531,86.3562134 68.6511347,86.7327498 67.7903542,87.28058 C67.0035353,87.7689752 66.3318995,88.4371571 65.8254383,89.2353913 C65.316409,90.046033 64.9953691,90.9703356 64.8879986,91.9343636 C64.7725385,92.779676 64.8193564,93.6406598 65.0257016,94.4667327 C65.2364882,95.2407134 65.6174234,95.9520833 66.1379182,96.5437196 C66.747935,97.2415544 67.4637495,97.8288774 68.2564259,98.2819467 C69.288747,98.8805063 70.3677846,99.3858423 71.4818539,99.7924826 C72.5940704,100.162712 73.5262138,100.532941 74.278284,100.903171 C74.9109427,101.165504 75.5146954,101.498796 76.0790156,101.897237 C76.4669622,102.167237 76.7853321,102.533495 77.0058627,102.963497 C77.1858075,103.368906 77.2448764,103.821821 77.1753433,104.263003 C77.128306,104.722659 76.9595215,105.159338 76.6880866,105.523634 C76.4069085,105.896503 76.0433451,106.191946 75.6288327,106.384417 C75.1416058,106.611101 74.6232094,106.755428 74.0929146,106.812032 C73.4548326,106.880687 72.8112268,106.869502 72.1756651,106.778711 C71.4797952,106.693876 70.7987456,106.506934 70.1524903,106.223367 C69.5611395,105.96086 69.0221452,105.584083 68.5636095,105.112679 C68.1015529,104.623298 67.7409277,104.039078 67.5043557,103.396666 C67.2445222,102.668204 67.1344264,101.890392 67.1812832,101.114202 L63.0554895,100.558857 C62.9299509,101.809117 63.0178295,103.07283 63.3150067,104.29077 C63.593953,105.430043 64.1134185,106.489055 64.8350359,107.38959 C65.6195545,108.341723 66.5821684,109.114806 67.6632437,109.660947 C68.9823321,110.314439 70.3966575,110.731181 71.8472964,110.893811 C73.0201124,111.060706 74.2107921,111.030712 75.3746118,110.804956 C76.4095633,110.606232 77.4006659,110.208991 78.2981524,109.63318 C79.1267769,109.094346 79.8349029,108.374566 80.37429,107.522873 C80.9207092,106.639825 81.265101,105.636306 81.3805811,104.590656 C81.4977654,103.758446 81.463621,102.910497 81.279952,102.091607 C81.111754,101.386252 80.8169723,100.720943 80.4113638,100.131243 C80.0057633,99.5503446 79.5202938,99.0356876 78.9707786,98.6040463 C78.3998179,98.154477 77.789831,97.7621604 77.148862,97.4322702 C76.4974209,97.0879569 75.8194984,96.7825176 75.1309834,96.5048456 C74.4424684,96.2271735 73.7592497,95.9495014 73.097216,95.7440241 C72.3345532,95.4719055 71.6937046,95.18868 71.1640777,94.9609889 C70.7127598,94.7538318 70.2846882,94.4949471 69.8876768,94.1890606 C69.6038722,93.9786475 69.3715711,93.7008128 69.2097544,93.3782583 C69.0758855,93.08871 69.0296831,92.7631541 69.0773476,92.4452802 C69.1645193,91.6159764 69.6762812,90.9026238 70.4120075,90.5848774 C71.4474651,90.1668595 72.5734239,90.0591797 73.6639168,90.2738847 C76.4885937,90.6441141 77.8885743,92.2101845 77.8638583,94.9720958 L81.9419857,95.5274399 C82.0768944,94.3431057 81.9759007,93.1423017 81.6453946,92.0010049 C81.3565813,90.9291288 80.8426397,89.9386208 80.1412541,89.1021087 Z" id="Shape" fill="#101F57"></path>
                        <path d="M95.1361231,89 L83,111.145179 L87.6962482,111.730228 L91.0151515,105.381365 L99.3124098,106.410618 L101.054834,113.387866 L106,114 L99.3290043,89.5254605 L95.1361231,89 Z M92.8405483,101.849404 L96.5189995,94.8071506 L98.4439634,102.537378 L92.8405483,101.849404 Z" id="Shape" fill="#101F57"></path>
                        <polygon id="Shape" fill="#101F57" points="115.511344 91.5433613 111.038045 91 108 114.117065 123.480628 116 124 112.029697 112.998255 110.684743"></polygon>
                        <polygon id="Shape" fill="#101F57" points="144.589716 119 145.087841 114.927844 131.793787 113.189728 132.549009 107.037351 144.525442 108.598896 145.023567 104.554329 133.047134 102.992784 133.705945 97.6349745 146.501875 99.3013582 147 95.229202 129.913765 93 127 116.710102"></polygon>
                    </g>
                    <g id="Group-12" transform="translate(34.000000, 642.000000)" fill-rule="nonzero">
                        <circle id="Oval" fill="#EE3322" cx="33.5" cy="74.5" r="33.5"></circle>
                        <circle id="Oval" fill="#EE3322" cx="87.5" cy="74.5" r="33.5"></circle>
                        <rect id="Rectangle-path" fill="#EE3322" transform="translate(49.000000, 110.000000) rotate(45.000000) translate(-49.000000, -110.000000) " x="14" y="90" width="70" height="40"></rect>
                        <rect id="Rectangle-path" fill="#EE3322" transform="translate(72.000000, 108.000000) rotate(135.000000) translate(-72.000000, -108.000000) " x="37" y="88" width="70" height="40"></rect>
                        <path d="M68.0888858,151 L16.4132647,99.5641718 C7.47857928,90.795701 3.95135831,77.9330982 7.17145648,65.8623686 C10.3915547,53.791639 19.8648419,44.3650586 31.9927829,41.1634206 C44.120724,37.9617825 57.0422635,41.4763842 65.8490087,50.3721644 L68.0888858,52.6088165 L70.3431673,50.3721644 C83.9904936,36.7881681 106.11718,36.7881688 119.764505,50.372166 C133.411831,63.9561631 133.411832,85.9801738 119.764507,99.5641718 L68.0888858,151 Z M41.1311367,43.7912459 C28.4552331,43.7820451 17.0228022,51.3766209 12.1678379,63.0315955 C7.31287353,74.6865701 9.99216092,88.1050561 18.9556332,97.026432 L68.0888858,145.931689 L117.222138,97.026432 C129.469331,84.8420097 129.474168,65.0823435 117.232942,52.8919823 C104.991716,40.7016212 85.1399304,40.6968069 72.892738,52.8812292 L68.0888858,57.6699586 L63.299438,52.8812292 C57.4163045,47.0407209 49.4402368,43.7701807 41.1311367,43.7912459 Z" id="Shape" fill="#101F57"></path>
                        <rect id="Rectangle-path" fill="#FFFFFF" x="77" y="0" width="44" height="76" rx="12"></rect>
                        <path d="M115.579486,66 C114.794958,66 114.158972,65.353293 114.158972,64.5555395 L114.158972,18.888921 L85.8410278,18.888921 L85.8410278,64.5555395 C85.8410278,65.353293 85.2050421,66 84.4205139,66 C83.6359857,66 83,65.353293 83,64.5555395 L83,17.4444605 C83,16.646707 83.6359857,16 84.4205139,16 L115.579486,16 C116.364014,16 117,16.646707 117,17.4444605 L117,64.5555395 C117,65.353293 116.364014,66 115.579486,66 Z" id="Shape" fill="#3F3A34"></path>
                        <path d="M109.561879,65 C108.763635,65 108.116531,64.3508166 108.116531,63.5500082 L108.116531,28.1339595 C106.065791,27.5852582 104.472537,25.9646846 103.95393,23.8999835 L94.0532972,23.8999835 C93.5319123,25.9631148 91.9398323,27.5824935 89.8906956,28.1339595 L89.8906956,63.5500082 C89.8906956,64.3508166 89.2435913,65 88.4453478,65 C87.6471042,65 87,64.3508166 87,63.5500082 L87,26.8652167 C87,26.0644083 87.6471042,25.4152249 88.4453478,25.4152249 C89.2234111,25.4154225 89.968702,25.1009488 90.5127217,24.5429014 C91.0567413,23.9848541 91.3535498,23.2303575 91.3360434,22.4499918 C91.3360434,21.6491834 91.9831476,21 92.7813911,21 L105.218609,21 C106.016852,21 106.663957,21.6491834 106.663957,22.4499918 C106.647896,24.0688611 107.94101,25.3953181 109.554652,25.4152249 C110.352896,25.4152249 111,26.0644083 111,26.8652167 L111,63.5500082 C111.00001,64.3479938 110.357299,64.9960101 109.561879,65 Z" id="Shape" fill="#3F3A34"></path>
                        <path d="M97.1655106,53.9999906 C95.782078,54.0026661 94.4567303,53.4358766 93.4925204,52.4292237 C92.8358265,47.8337712 92.8358265,43.1662288 93.4925204,38.5707763 C94.4567303,37.5641234 95.782078,36.9973339 97.1655106,37.0000094 C98.5489433,36.9973339 99.874291,37.5641234 100.838501,38.5707763 L106.594259,44.4968512 C107.135247,45.05297 107.135247,45.94703 106.594259,46.5031488 L100.838501,52.4292237 C99.874291,53.4358766 98.5489433,54.0026661 97.1655106,53.9999906 Z M97.1655106,39.8559491 C96.5376672,39.856884 95.9366224,40.1142187 95.4978886,40.5699341 C94.5537916,41.5449308 94.5537916,43.1077432 95.4978886,44.0827399 L95.8989623,44.4968512 C96.4399497,45.05297 96.4399497,45.94703 95.8989623,46.5031488 L95.4908523,46.9172601 C94.551355,47.8913863 94.551355,49.4487999 95.4908523,50.4229261 C96.4171655,51.351156 97.9068194,51.351156 98.8331326,50.4229261 L103.617871,45.4964301 L98.8331326,40.5770739 C98.3922351,40.12027 97.7885982,39.8629115 97.1584743,39.863089 L97.1655106,39.8559491 Z" id="Shape" fill="#3F3A34"></path>
                        <path d="M117.561682,64 L81.4383183,64 C80.643957,64 80,63.3284271 80,62.5 C80,61.6715729 80.643957,61 81.4383183,61 L117.561682,61 C118.356043,61 119,61.6715729 119,62.5 C119,63.3284271 118.356043,64 117.561682,64 Z" id="Shape" fill="#3F3A34"></path>
                    </g>
                    <g id="Group-14-Copy-2" transform="translate(206.000000, 670.500000) rotate(-270.000000) translate(-206.000000, -670.500000) translate(161.000000, 646.000000)" fill-rule="nonzero">
                        <path d="M6.59023944,31.505279 L4.62300378,31.505279 C4.62300378,31.283965 4.62300378,31.067569 4.62300378,30.846255 L6.59023944,30.8855997 C6.59515753,31.0921595 6.59023944,31.2987192 6.59023944,31.505279 Z M7.26401765,25.2248792 L5.3410448,24.8068416 C5.76970367,22.821098 6.39237221,20.8822598 7.20008249,19.0182507 L9.0050212,19.8002268 C8.24909721,21.5473136 7.66598303,23.3641919 7.26401765,25.2248792 Z M11.7689873,14.8132845 L10.150936,13.6968782 C11.3091999,12.022696 12.6268374,10.4645896 14.0854073,9.04436591 L15.4624722,10.4509394 C14.0923161,11.7814257 12.8552902,13.242467 11.7689873,14.8132845 Z M19.8789163,6.88532478 L18.7969367,5.24268301 C20.4949066,4.12584016 22.2967266,3.17552009 24.1773262,2.40494559 L24.9248757,4.22955665 C23.1603899,4.94831945 21.4703711,5.83780305 19.8789163,6.88532478 Z M30.3839547,2.59675106 L30.0003437,0.649187765 C31.9936453,0.263315571 34.0192858,0.0689858303 36.0495933,0.0688532478 L36.0495933,2.0360889 C34.147883,2.03537405 32.2505419,2.21819076 30.3839547,2.58199679 L30.3839547,2.59675106 Z" id="Shape" fill="#27B8CD"></path>
                        <path d="M23.7986333,23.9953569 L21.9002509,23.503548 C22.3268599,21.8752905 22.8861129,20.2847092 23.5724012,18.7477558 L25.3724218,19.5494043 C24.72892,20.9865753 24.2026109,22.4733986 23.7986333,23.9953569 Z M27.6396609,15.3887009 L25.9921011,14.3116394 C26.9165319,12.9044517 27.9526729,11.5739151 29.0904972,10.3329053 L30.565924,11.6607893 C29.4920347,12.8228782 28.5134522,14.069543 27.6396609,15.3887009 Z" id="Shape" fill="#27B8CD"></path>
                        <path d="M36.0594295,1.05247107 L52.2891236,1.05247107 C69.107745,1.05247107 82.7419315,14.6866576 82.7419315,31.505279 L89.8485703,31.505279 L74.602494,46.7513553 L59.3564177,31.505279 L66.4630565,31.505279 C66.4630784,14.7058452 52.8588414,1.07960194 36.0594295,1.05247107 Z" id="Shape" fill="#8FF1FF"></path>
                        <path d="M2.16887731,31.505279 L0.201641654,31.505279 C0.223319221,14.1524075 14.2851959,0.090530814 31.6380674,0.0688532478 L31.6380674,2.0360889 C15.3716693,2.05776301 2.19055142,15.2388809 2.16887731,31.505279 Z" id="Shape" fill="#101F57"></path>
                        <path d="M18.4133257,31.505279 L16.4460714,31.505279 C16.4344787,20.8340901 21.85552,10.890881 30.8315008,5.11973079 L31.8987261,6.76729064 C23.485798,12.1802662 18.4045754,21.5014003 18.4133257,31.505279 Z" id="Shape" fill="#101F57"></path>
                        <path d="M70.2155585,48.1235022 L52.6235537,30.5216611 L61.1023394,30.5216611 C60.5516759,14.6463369 47.5327632,2.05566367 31.6479036,2.0360889 L31.6479036,0.0688532478 L47.8775977,0.0688532478 C64.848417,0.089057167 78.7477292,13.5597945 79.2992692,30.5216611 L87.8075634,30.5216611 L70.2155585,48.1235022 Z M57.3596735,32.4888968 L70.2155585,45.3398637 L83.0665254,32.4888968 L77.3517059,32.4888968 L77.3517059,31.505279 C77.3300317,15.2388809 64.1489139,2.05776301 47.8825158,2.0360889 L42.5906519,2.0360889 C54.8985162,6.62300833 63.0640989,18.3704685 63.0744931,31.505279 L63.0744931,32.4888968 L57.3596735,32.4888968 Z" id="Shape" fill="#101F57"></path>
                    </g>
                </g>
                <text id="Suppliers-may-sell-t" fill="#000000" font-family="PingFangTC-Thin, PingFang TC" font-size="12" font-weight="300">
                    <tspan x="14" y="212">Suppliers may sell their </tspan>
                    <tspan x="14" y="229">inventory at auction </tspan>
                    <tspan x="14" y="246">through the platform</tspan>
                </text>
                <text id="User-can-bid-for-the" fill="#000000" font-family="PingFangTC-Thin, PingFang TC" font-size="12" font-weight="300">
                    <tspan x="15" y="422">User can bid for the </tspan>
                    <tspan x="15" y="439">inventory auctioned by </tspan>
                    <tspan x="15" y="456">the suppliers </tspan>
                </text>
                <text id="The-earnings-from-th" fill="#000000" font-family="PingFangTC-Thin, PingFang TC" font-size="12" font-weight="300">
                    <tspan x="15" y="705">The earnings from the </tspan>
                    <tspan x="15" y="722">auction will be fully donated </tspan>
                    <tspan x="15" y="739">to the charities</tspan>
                </text>
            </g>
        </g>
    </g>
</svg>